<svg width="18" height="18" viewBox="0 0 18 18" fill="none" xmlns="http://www.w3.org/2000/svg">
<g clip-path="url(#clip0)">
<path d="M9.99393 9.00076L17.7936 1.20108C18.0682 0.926474 18.0682 0.481256 17.7936 0.206686C17.519 -0.0678837 17.0738 -0.0679188 16.7992 0.206686L8.9995 8.00637L1.19986 0.206686C0.925253 -0.0679188 0.480035 -0.0679188 0.205465 0.206686C-0.0691044 0.481291 -0.0691395 0.926509 0.205465 1.20108L8.00511 9.00072L0.205465 16.8004C-0.0691395 17.075 -0.0691395 17.5202 0.205465 17.7948C0.34275 17.9321 0.522715 18.0007 0.702679 18.0007C0.882644 18.0007 1.06257 17.9321 1.19989 17.7948L8.9995 9.99515L16.7992 17.7948C16.9364 17.9321 17.1164 18.0007 17.2964 18.0007C17.4763 18.0007 17.6563 17.9321 17.7936 17.7948C18.0682 17.5202 18.0682 17.075 17.7936 16.8004L9.99393 9.00076Z" fill="#ACBBB6"/>
</g>
<defs>
<clipPath id="clip0">
<rect width="18" height="18" fill="white"/>
</clipPath>
</defs>
</svg>
