<svg width="48" height="48" viewBox="0 0 48 48" fill="none" xmlns="http://www.w3.org/2000/svg">
<path d="M45.5625 1.78125H15.705C15.531 1.78125 15.364 1.85039 15.241 1.97346C15.1179 2.09653 15.0487 2.26345 15.0487 2.4375V16.7092H2.4375C2.26345 16.7092 2.09653 16.7784 1.97346 16.9015C1.85039 17.0245 1.78125 17.1915 1.78125 17.3655V38.928C1.78125 39.102 1.85039 39.269 1.97346 39.392C2.09653 39.5151 2.26345 39.5843 2.4375 39.5843H5.48438V45.5625C5.48444 45.6922 5.52296 45.8191 5.59508 45.9269C5.66719 46.0348 5.76966 46.1188 5.88953 46.1685C6.00941 46.2181 6.14131 46.2311 6.26856 46.2058C6.39582 46.1805 6.51272 46.1181 6.6045 46.0264L13.047 39.5839H32.2931C32.4672 39.5839 32.6341 39.5147 32.7572 39.3917C32.8802 39.2686 32.9494 39.1017 32.9494 38.9276V24.6562H34.9519L41.3936 31.0976C41.4854 31.1893 41.6023 31.2518 41.7296 31.2771C41.8568 31.3024 41.9887 31.2894 42.1086 31.2397C42.2285 31.1901 42.3309 31.106 42.403 30.9982C42.4752 30.8903 42.5137 30.7635 42.5138 30.6338V24.6562H45.5625C45.7365 24.6562 45.9035 24.5871 46.0265 24.464C46.1496 24.341 46.2188 24.174 46.2188 24V2.4375C46.2188 2.26345 46.1496 2.09653 46.0265 1.97346C45.9035 1.85039 45.7365 1.78125 45.5625 1.78125ZM31.6369 38.2718H12.7744C12.6004 38.2718 12.4335 38.341 12.3105 38.4641L6.79612 43.9766V38.928C6.79612 38.754 6.72698 38.587 6.60391 38.464C6.48084 38.3409 6.31392 38.2718 6.13987 38.2718H3.09375V18.0217H15.696H15.705H15.714H31.6369V38.2718ZM44.9062 23.3438H41.8575C41.6835 23.3438 41.5165 23.4129 41.3935 23.536C41.2704 23.659 41.2013 23.826 41.2013 24V29.0494L35.6888 23.5369C35.5657 23.4138 35.3989 23.3446 35.2249 23.3445H32.9494V17.3655C32.9494 17.1915 32.8802 17.0245 32.7572 16.9015C32.6341 16.7784 32.4672 16.7092 32.2931 16.7092H16.3612V3.09375H44.9062V23.3438Z" fill="white"/>
<path d="M7.80298 29.6467C8.63141 29.6467 9.30298 28.9752 9.30298 28.1467C9.30298 27.3183 8.63141 26.6467 7.80298 26.6467C6.97455 26.6467 6.30298 27.3183 6.30298 28.1467C6.30298 28.9752 6.97455 29.6467 7.80298 29.6467Z" fill="white"/>
<path d="M14.178 29.6467C15.0064 29.6467 15.678 28.9752 15.678 28.1467C15.678 27.3183 15.0064 26.6467 14.178 26.6467C13.3496 26.6467 12.678 27.3183 12.678 28.1467C12.678 28.9752 13.3496 29.6467 14.178 29.6467Z" fill="white"/>
<path d="M20.553 29.6467C21.3814 29.6467 22.053 28.9752 22.053 28.1467C22.053 27.3183 21.3814 26.6467 20.553 26.6467C19.7246 26.6467 19.053 27.3183 19.053 28.1467C19.053 28.9752 19.7246 29.6467 20.553 29.6467Z" fill="white"/>
<path d="M26.928 29.6467C27.7564 29.6467 28.428 28.9752 28.428 28.1467C28.428 27.3183 27.7564 26.6467 26.928 26.6467C26.0996 26.6467 25.428 27.3183 25.428 28.1467C25.428 28.9752 26.0996 29.6467 26.928 29.6467Z" fill="white"/>
<path d="M21.072 14.7188C21.9004 14.7188 22.572 14.0472 22.572 13.2188C22.572 12.3903 21.9004 11.7188 21.072 11.7188C20.2436 11.7188 19.572 12.3903 19.572 13.2188C19.572 14.0472 20.2436 14.7188 21.072 14.7188Z" fill="white"/>
<path d="M27.447 14.7188C28.2754 14.7188 28.947 14.0472 28.947 13.2188C28.947 12.3903 28.2754 11.7188 27.447 11.7188C26.6186 11.7188 25.947 12.3903 25.947 13.2188C25.947 14.0472 26.6186 14.7188 27.447 14.7188Z" fill="white"/>
<path d="M33.822 14.7188C34.6504 14.7188 35.322 14.0472 35.322 13.2188C35.322 12.3903 34.6504 11.7188 33.822 11.7188C32.9936 11.7188 32.322 12.3903 32.322 13.2188C32.322 14.0472 32.9936 14.7188 33.822 14.7188Z" fill="white"/>
<path d="M40.197 14.7188C41.0254 14.7188 41.697 14.0472 41.697 13.2188C41.697 12.3903 41.0254 11.7188 40.197 11.7188C39.3686 11.7188 38.697 12.3903 38.697 13.2188C38.697 14.0472 39.3686 14.7188 40.197 14.7188Z" fill="white"/>
</svg>
