<svg width="32" height="32" viewBox="0 0 32 32" fill="none" xmlns="http://www.w3.org/2000/svg">
<g clip-path="url(#clip0)">
<path d="M31.7628 13.4547L31.7628 13.4546L27.6767 10.7456V1.69103C27.6767 1.39833 27.4394 1.16104 27.1467 1.16104H4.85257C4.55988 1.16104 4.32259 1.39833 4.32259 1.69103V10.7463L0.237152 13.4546L0.237223 13.4547C0.094338 13.5496 0 13.7119 0 13.8963V30.309C0 30.6017 0.237294 30.839 0.529989 30.839H31.47C31.7627 30.839 32 30.6017 32 30.309V13.8963C32 13.7119 31.9057 13.5496 31.7628 13.4547ZM4.32259 15.3081L2.66019 14.4263H4.32259V15.3081ZM1.05998 14.7774L13.2479 21.2425L1.05998 29.3214V14.7774ZM15.9998 20.69L29.7114 29.779H2.28821L15.9998 20.69ZM18.7518 21.2426L30.94 14.7774V29.3217L18.7518 21.2426ZM27.6767 14.4263H29.3399L27.6767 15.3085V14.4263ZM29.7114 13.3663H27.6767V12.0173L29.7114 13.3663ZM26.6167 2.22102V15.8708L17.7463 20.5761L16.2926 19.6124C16.1151 19.4948 15.8844 19.4948 15.707 19.6124L14.2534 20.5759L5.38256 15.8704V2.22102H26.6167ZM4.32259 13.3663H2.2887L4.32259 12.018V13.3663Z" fill="white"/>
<path d="M16.0006 15.0991H20.2231C20.5158 15.0991 20.7531 14.8618 20.7531 14.5691C20.7531 14.2764 20.5158 14.0391 20.2231 14.0391H16.0006C13.9645 14.0391 12.308 12.3827 12.308 10.3466V10.1902C12.308 8.15415 13.9645 6.49768 16.0006 6.49768C18.0366 6.49768 19.6931 8.15415 19.6931 10.1902V10.5812C19.6931 11.0219 19.3345 11.3806 18.8937 11.3806C18.4529 11.3806 18.0944 11.022 18.0944 10.5812V9.83838C18.0944 8.57602 17.0674 7.54897 15.805 7.54897C14.5427 7.54897 13.5157 8.57595 13.5157 9.83838C13.5157 11.1007 14.5427 12.1277 15.805 12.1277C16.3823 12.1277 16.9099 11.9125 17.313 11.5587C17.6412 12.0875 18.2269 12.4405 18.8937 12.4405C19.9189 12.4405 20.7531 11.6064 20.7531 10.5811V10.1902C20.7531 7.5696 18.6211 5.43764 16.0006 5.43764C13.38 5.43764 11.248 7.5696 11.248 10.1902V10.3465C11.248 12.9671 13.38 15.0991 16.0006 15.0991ZM15.805 11.0677C15.1271 11.0677 14.5757 10.5163 14.5757 9.83838C14.5757 9.16049 15.1272 8.60895 15.805 8.60895C16.4828 8.60895 17.0344 9.16049 17.0344 9.83838C17.0344 10.5163 16.4829 11.0677 15.805 11.0677Z" fill="white"/>
</g>
<defs>
<clipPath id="clip0">
<rect width="32" height="32" fill="white"/>
</clipPath>
</defs>
</svg>
