<svg width="16" height="16" viewBox="0 0 16 16" fill="none" xmlns="http://www.w3.org/2000/svg">
<g clip-path="url(#clip0)">
<path d="M10.2278 1.32274C11.1505 1.32274 11.8986 2.07086 11.8986 2.99358V13.9019L9.69872 11.702L8.91116 12.4896L12.0618 15.6402C12.2794 15.8576 12.6318 15.8576 12.8494 15.6402L16 12.4896L15.2124 11.702L13.0125 13.9019V2.99358C13.0106 1.4564 11.765 0.210745 10.2278 0.208841H8L8 1.32274H10.2278Z" fill="#6F6F6F"/>
<path d="M5.77222 14.6895C4.84936 14.6895 4.10137 13.9415 4.10137 13.0187L4.10137 2.11032L6.30129 4.31023L7.08885 3.52267L3.9382 0.37203C3.72065 0.154608 3.3682 0.154608 3.15064 0.37203L0 3.52267L0.787559 4.31023L2.98748 2.11032L2.98748 13.0187C2.98924 14.5558 4.23503 15.8016 5.77222 15.8034H8.00001V14.6895H5.77222Z" fill="#6F6F6F"/>
</g>
<defs>
<clipPath id="clip0">
<rect width="16" height="16" fill="white" transform="translate(0 16) rotate(-90)"/>
</clipPath>
</defs>
</svg>
