<svg width="20" height="20" viewBox="0 0 20 20" fill="none" xmlns="http://www.w3.org/2000/svg">
<g clip-path="url(#clip0)">
<path d="M18.5938 1.55899H10.3903C10.1746 1.55899 9.99969 1.73386 9.99969 1.94962C9.99969 2.16537 10.1746 2.34024 10.3903 2.34024H18.2031V17.6562H5.63599C5.67932 17.534 5.70312 17.4026 5.70312 17.2656V15.0764C5.91873 15.0763 6.0936 14.9013 6.0936 14.6857C6.0936 14.4699 5.91873 14.295 5.70312 14.295V11.9513C5.91873 11.9513 6.0936 11.7763 6.0936 11.5605C6.0936 11.3449 5.91873 11.17 5.70312 11.1699V8.82629C5.91873 8.82629 6.0936 8.65128 6.0936 8.43552C6.0936 8.21991 5.91873 8.04504 5.70312 8.04489V5.70129C5.91873 5.70129 6.0936 5.52628 6.0936 5.31052C6.0936 5.09491 5.91873 4.92004 5.70312 4.91989V2.73438C5.70312 2.59613 5.67886 2.46353 5.63477 2.34024H7.26532C7.48108 2.34024 7.65594 2.16537 7.65594 1.94962C7.65594 1.73386 7.48108 1.55899 7.26532 1.55899H4.90356L4.92188 0.396729C4.9234 0.292053 4.88297 0.191193 4.80957 0.116577C4.73618 0.0419617 4.63593 0 4.53125 0H2.1875C1.97418 0 1.80023 0.171204 1.79688 0.384521L1.77719 1.63681C1.33286 1.80344 1.01562 2.23251 1.01562 2.73438V17.2656C1.01562 17.775 1.34216 18.2091 1.79688 18.3704V19.6094C1.79688 19.8251 1.97174 20 2.1875 20H4.53125C4.74701 20 4.92188 19.8251 4.92188 19.6094V18.4375H18.5938C18.8094 18.4375 18.9844 18.2626 18.9844 18.0469V1.94962C18.9844 1.73386 18.8094 1.55899 18.5938 1.55899ZM4.50668 17.6562H2.1875C1.97205 17.6562 1.79688 17.4811 1.79688 17.2656V2.73438C1.79688 2.51892 1.97205 2.34375 2.1875 2.34375H4.53125C4.7467 2.34375 4.92188 2.51892 4.92188 2.73438V17.2656C4.92188 17.4811 4.7467 17.6562 4.53125 17.6562H4.50668ZM4.13452 0.78125L4.12216 1.5625H2.55981L2.57202 0.78125H4.13452ZM2.57812 19.2188V18.4375H4.14062V19.2188H2.57812Z" fill="#ACBBB6"/>
<path d="M16.6406 4.13882C16.8564 4.13882 17.0312 3.96381 17.0312 3.74805C17.0312 3.53229 16.8564 3.35742 16.6406 3.35742C16.425 3.35742 16.25 3.53229 16.25 3.74805V3.74835C16.25 3.96411 16.4249 4.13882 16.6406 4.13882Z" fill="#ACBBB6"/>
<path d="M16.25 6.87335C16.25 7.08911 16.425 7.26382 16.6406 7.26382C16.8564 7.26382 17.0312 7.08881 17.0312 6.87305C17.0312 6.65729 16.8564 6.48242 16.6406 6.48242C16.425 6.48242 16.25 6.65729 16.25 6.87305V6.87335Z" fill="#ACBBB6"/>
<path d="M16.25 9.99835C16.25 10.2141 16.425 10.3888 16.6406 10.3888C16.8564 10.3888 17.0312 10.2138 17.0312 9.99805C17.0312 9.78229 16.8564 9.60742 16.6406 9.60742C16.425 9.60742 16.25 9.78229 16.25 9.99805V9.99835Z" fill="#ACBBB6"/>
<path d="M16.25 13.1234C16.25 13.339 16.425 13.5138 16.6406 13.5138C16.8564 13.5138 17.0312 13.3387 17.0312 13.123C17.0312 12.9073 16.8564 12.7324 16.6406 12.7324C16.425 12.7324 16.25 12.9073 16.25 13.123V13.1234Z" fill="#ACBBB6"/>
<path d="M16.25 16.2482C16.25 16.464 16.425 16.6388 16.6406 16.6388C16.8564 16.6388 17.0312 16.4637 17.0312 16.248C17.0312 16.0323 16.8564 15.8574 16.6406 15.8574C16.425 15.8574 16.25 16.0323 16.25 16.248V16.2482Z" fill="#ACBBB6"/>
<path d="M15.0781 5.70132C15.2937 5.70132 15.4688 5.52631 15.4688 5.31055C15.4688 5.09479 15.2937 4.91992 15.0781 4.91992C14.8624 4.91992 14.6875 5.09479 14.6875 5.31055V5.31085C14.6875 5.52661 14.8624 5.70132 15.0781 5.70132Z" fill="#ACBBB6"/>
<path d="M14.6875 8.43585C14.6875 8.65161 14.8624 8.82632 15.0781 8.82632C15.2937 8.82632 15.4688 8.65131 15.4688 8.43555C15.4688 8.21979 15.2937 8.04492 15.0781 8.04492C14.8624 8.04492 14.6875 8.21979 14.6875 8.43555V8.43585Z" fill="#ACBBB6"/>
<path d="M14.6875 11.5609C14.6875 11.7765 14.8624 11.9513 15.0781 11.9513C15.2937 11.9513 15.4688 11.7762 15.4688 11.5605C15.4688 11.3448 15.2937 11.1699 15.0781 11.1699C14.8624 11.1699 14.6875 11.3448 14.6875 11.5605V11.5609Z" fill="#ACBBB6"/>
<path d="M14.6875 14.6857C14.6875 14.9015 14.8624 15.0763 15.0781 15.0763C15.2937 15.0763 15.4688 14.9012 15.4688 14.6855C15.4688 14.4698 15.2937 14.2949 15.0781 14.2949C14.8624 14.2949 14.6875 14.4698 14.6875 14.6855V14.6857Z" fill="#ACBBB6"/>
<path d="M13.5156 4.13882C13.7314 4.13882 13.9062 3.96381 13.9062 3.74805C13.9062 3.53229 13.7314 3.35742 13.5156 3.35742C13.3 3.35742 13.125 3.53229 13.125 3.74805V3.74835C13.125 3.96411 13.2999 4.13882 13.5156 4.13882Z" fill="#ACBBB6"/>
<path d="M13.125 6.87335C13.125 7.08911 13.3 7.26382 13.5156 7.26382C13.7314 7.26382 13.9062 7.08881 13.9062 6.87305C13.9062 6.65729 13.7314 6.48242 13.5156 6.48242C13.3 6.48242 13.125 6.65729 13.125 6.87305V6.87335Z" fill="#ACBBB6"/>
<path d="M13.125 9.99835C13.125 10.2141 13.3 10.3888 13.5156 10.3888C13.7314 10.3888 13.9062 10.2138 13.9062 9.99805C13.9062 9.78229 13.7314 9.60742 13.5156 9.60742C13.3 9.60742 13.125 9.78229 13.125 9.99805V9.99835Z" fill="#ACBBB6"/>
<path d="M13.125 13.1234C13.125 13.339 13.3 13.5138 13.5156 13.5138C13.7314 13.5138 13.9062 13.3387 13.9062 13.123C13.9062 12.9073 13.7314 12.7324 13.5156 12.7324C13.3 12.7324 13.125 12.9073 13.125 13.123V13.1234Z" fill="#ACBBB6"/>
<path d="M13.125 16.2482C13.125 16.464 13.3 16.6388 13.5156 16.6388C13.7314 16.6388 13.9062 16.4637 13.9062 16.248C13.9062 16.0323 13.7314 15.8574 13.5156 15.8574C13.3 15.8574 13.125 16.0323 13.125 16.248V16.2482Z" fill="#ACBBB6"/>
<path d="M11.9531 5.70132C12.1687 5.70132 12.3438 5.52631 12.3438 5.31055C12.3438 5.09479 12.1687 4.91992 11.9531 4.91992C11.7374 4.91992 11.5625 5.09479 11.5625 5.31055V5.31085C11.5625 5.52661 11.7374 5.70132 11.9531 5.70132Z" fill="#ACBBB6"/>
<path d="M11.5625 8.43585C11.5625 8.65161 11.7374 8.82632 11.9531 8.82632C12.1687 8.82632 12.3438 8.65131 12.3438 8.43555C12.3438 8.21979 12.1687 8.04492 11.9531 8.04492C11.7374 8.04492 11.5625 8.21979 11.5625 8.43555V8.43585Z" fill="#ACBBB6"/>
<path d="M11.5625 11.5609C11.5625 11.7765 11.7374 11.9513 11.9531 11.9513C12.1687 11.9513 12.3438 11.7762 12.3438 11.5605C12.3438 11.3448 12.1687 11.1699 11.9531 11.1699C11.7374 11.1699 11.5625 11.3448 11.5625 11.5605V11.5609Z" fill="#ACBBB6"/>
<path d="M11.5625 14.6857C11.5625 14.9015 11.7374 15.0763 11.9531 15.0763C12.1687 15.0763 12.3438 14.9012 12.3438 14.6855C12.3438 14.4698 12.1687 14.2949 11.9531 14.2949C11.7374 14.2949 11.5625 14.4698 11.5625 14.6855V14.6857Z" fill="#ACBBB6"/>
<path d="M10.3906 4.13882C10.6064 4.13882 10.7812 3.96381 10.7812 3.74805C10.7812 3.53229 10.6064 3.35742 10.3906 3.35742C10.175 3.35742 10 3.53229 10 3.74805V3.74835C10 3.96411 10.1749 4.13882 10.3906 4.13882Z" fill="#ACBBB6"/>
<path d="M10 6.87335C10 7.08911 10.175 7.26382 10.3906 7.26382C10.6064 7.26382 10.7812 7.08881 10.7812 6.87305C10.7812 6.65729 10.6064 6.48242 10.3906 6.48242C10.175 6.48242 10 6.65729 10 6.87305V6.87335Z" fill="#ACBBB6"/>
<path d="M10 9.99835C10 10.2141 10.175 10.3888 10.3906 10.3888C10.6064 10.3888 10.7812 10.2138 10.7812 9.99805C10.7812 9.78229 10.6064 9.60742 10.3906 9.60742C10.175 9.60742 10 9.78229 10 9.99805V9.99835Z" fill="#ACBBB6"/>
<path d="M10 13.1234C10 13.339 10.175 13.5138 10.3906 13.5138C10.6064 13.5138 10.7812 13.3387 10.7812 13.123C10.7812 12.9073 10.6064 12.7324 10.3906 12.7324C10.175 12.7324 10 12.9073 10 13.123V13.1234Z" fill="#ACBBB6"/>
<path d="M10 16.2482C10 16.464 10.175 16.6388 10.3906 16.6388C10.6064 16.6388 10.7812 16.4637 10.7812 16.248C10.7812 16.0323 10.6064 15.8574 10.3906 15.8574C10.175 15.8574 10 16.0323 10 16.248V16.2482Z" fill="#ACBBB6"/>
<path d="M8.82812 4.91992C8.61237 4.91992 8.4375 5.09479 8.4375 5.31055V5.31085C8.4375 5.52661 8.61237 5.70132 8.82812 5.70132C9.04388 5.70132 9.21875 5.52631 9.21875 5.31055C9.21875 5.09479 9.04388 4.91992 8.82812 4.91992Z" fill="#ACBBB6"/>
<path d="M8.82812 8.04492C8.61237 8.04492 8.4375 8.21979 8.4375 8.43555V8.43585C8.4375 8.65161 8.61237 8.82632 8.82812 8.82632C9.04388 8.82632 9.21875 8.65131 9.21875 8.43555C9.21875 8.21979 9.04388 8.04492 8.82812 8.04492Z" fill="#ACBBB6"/>
<path d="M8.82812 11.1699C8.61237 11.1699 8.4375 11.3448 8.4375 11.5605V11.5609C8.4375 11.7765 8.61237 11.9513 8.82812 11.9513C9.04388 11.9513 9.21875 11.7762 9.21875 11.5605C9.21875 11.3448 9.04388 11.1699 8.82812 11.1699Z" fill="#ACBBB6"/>
<path d="M8.82812 14.2949C8.61237 14.2949 8.4375 14.4698 8.4375 14.6855V14.6857C8.4375 14.9015 8.61237 15.0763 8.82812 15.0763C9.04388 15.0763 9.21875 14.9012 9.21875 14.6855C9.21875 14.4698 9.04388 14.2949 8.82812 14.2949Z" fill="#ACBBB6"/>
<path d="M7.26562 3.35742C7.05002 3.35742 6.875 3.53229 6.875 3.74805V3.74835C6.875 3.96411 7.05002 4.13882 7.26562 4.13882C7.48138 4.13882 7.65625 3.96381 7.65625 3.74805C7.65625 3.53229 7.48138 3.35742 7.26562 3.35742Z" fill="#ACBBB6"/>
<path d="M7.26562 6.48242C7.05002 6.48242 6.875 6.65729 6.875 6.87305V6.87335C6.875 7.08911 7.05002 7.26382 7.26562 7.26382C7.48138 7.26382 7.65625 7.08881 7.65625 6.87305C7.65625 6.65729 7.48138 6.48242 7.26562 6.48242Z" fill="#ACBBB6"/>
<path d="M7.26562 9.60742C7.05002 9.60742 6.875 9.78229 6.875 9.99805V9.99835C6.875 10.2141 7.05002 10.3888 7.26562 10.3888C7.48138 10.3888 7.65625 10.2138 7.65625 9.99805C7.65625 9.78229 7.48138 9.60742 7.26562 9.60742Z" fill="#ACBBB6"/>
<path d="M7.26562 12.7324C7.05002 12.7324 6.875 12.9073 6.875 13.123V13.1234C6.875 13.339 7.05002 13.5138 7.26562 13.5138C7.48138 13.5138 7.65625 13.3387 7.65625 13.123C7.65625 12.9073 7.48138 12.7324 7.26562 12.7324Z" fill="#ACBBB6"/>
<path d="M7.26562 15.8574C7.05002 15.8574 6.875 16.0323 6.875 16.248V16.2482C6.875 16.464 7.05002 16.6388 7.26562 16.6388C7.48138 16.6388 7.65625 16.4637 7.65625 16.248C7.65625 16.0323 7.48138 15.8574 7.26562 15.8574Z" fill="#ACBBB6"/>
<path d="M4.14062 3.35742C3.92502 3.35742 3.75 3.53229 3.75 3.74805V3.74835C3.75 3.96411 3.92502 4.13882 4.14062 4.13882C4.35638 4.13882 4.53125 3.96381 4.53125 3.74805C4.53125 3.53229 4.35638 3.35742 4.14062 3.35742Z" fill="#ACBBB6"/>
<path d="M4.14062 6.48242C3.92502 6.48242 3.75 6.65729 3.75 6.87305V6.87335C3.75 7.08911 3.92502 7.26382 4.14062 7.26382C4.35638 7.26382 4.53125 7.08881 4.53125 6.87305C4.53125 6.65729 4.35638 6.48242 4.14062 6.48242Z" fill="#ACBBB6"/>
<path d="M4.14062 9.60742C3.92502 9.60742 3.75 9.78229 3.75 9.99805V9.99835C3.75 10.2141 3.92502 10.3888 4.14062 10.3888C4.35638 10.3888 4.53125 10.2138 4.53125 9.99805C4.53125 9.78229 4.35638 9.60742 4.14062 9.60742Z" fill="#ACBBB6"/>
<path d="M4.14062 12.7324C3.92502 12.7324 3.75 12.9073 3.75 13.123V13.1234C3.75 13.339 3.92502 13.5138 4.14062 13.5138C4.35638 13.5138 4.53125 13.3387 4.53125 13.123C4.53125 12.9073 4.35638 12.7324 4.14062 12.7324Z" fill="#ACBBB6"/>
<path d="M4.14062 15.8574C3.92502 15.8574 3.75 16.0323 3.75 16.248V16.2482C3.75 16.464 3.92502 16.6388 4.14062 16.6388C4.35638 16.6388 4.53125 16.4637 4.53125 16.248C4.53125 16.0323 4.35638 15.8574 4.14062 15.8574Z" fill="#ACBBB6"/>
<path d="M2.57812 4.91992C2.36237 4.91992 2.1875 5.09479 2.1875 5.31055V5.31085C2.1875 5.52661 2.36237 5.70132 2.57812 5.70132C2.79388 5.70132 2.96875 5.52631 2.96875 5.31055C2.96875 5.09479 2.79388 4.91992 2.57812 4.91992Z" fill="#ACBBB6"/>
<path d="M2.57812 8.04492C2.36237 8.04492 2.1875 8.21979 2.1875 8.43555V8.43585C2.1875 8.65161 2.36237 8.82632 2.57812 8.82632C2.79388 8.82632 2.96875 8.65131 2.96875 8.43555C2.96875 8.21979 2.79388 8.04492 2.57812 8.04492Z" fill="#ACBBB6"/>
<path d="M2.57812 11.1699C2.36237 11.1699 2.1875 11.3448 2.1875 11.5605V11.5609C2.1875 11.7765 2.36237 11.9513 2.57812 11.9513C2.79388 11.9513 2.96875 11.7762 2.96875 11.5605C2.96875 11.3448 2.79388 11.1699 2.57812 11.1699Z" fill="#ACBBB6"/>
<path d="M2.57812 14.2949C2.36237 14.2949 2.1875 14.4698 2.1875 14.6855V14.6857C2.1875 14.9015 2.36237 15.0763 2.57812 15.0763C2.79388 15.0763 2.96875 14.9012 2.96875 14.6855C2.96875 14.4698 2.79388 14.2949 2.57812 14.2949Z" fill="#ACBBB6"/>
<path d="M8.82779 2.34033C9.04355 2.34033 9.21841 2.16547 9.21841 1.94971C9.21841 1.73395 9.04355 1.55908 8.82779 1.55908H8.82748C8.61172 1.55908 8.43701 1.73395 8.43701 1.94971C8.43701 2.16547 8.61203 2.34033 8.82779 2.34033Z" fill="#ACBBB6"/>
</g>
<defs>
<clipPath id="clip0">
<rect width="20" height="20" fill="white"/>
</clipPath>
</defs>
</svg>
