<svg width="32" height="32" viewBox="0 0 32 32" fill="none" xmlns="http://www.w3.org/2000/svg">
<path d="M16.857 13.8572V12.1429C16.857 11.6697 17.241 11.2857 17.7141 11.2857H18.5713V9.14288H16.857C15.4367 9.14288 14.2856 10.294 14.2856 11.7143V13.8572H12.5713V16H14.2856V22.8572H16.857V16H18.5713L19.4284 13.8572H16.857Z" fill="white"/>
<mask id="path-2-inside-1" fill="white">
<path fill-rule="evenodd" clip-rule="evenodd" d="M16 30.4762C23.995 30.4762 30.4762 23.995 30.4762 16C30.4762 8.00502 23.995 1.52381 16 1.52381C8.00502 1.52381 1.52381 8.00502 1.52381 16C1.52381 23.995 8.00502 30.4762 16 30.4762ZM16 32C24.8366 32 32 24.8366 32 16C32 7.16344 24.8366 0 16 0C7.16344 0 0 7.16344 0 16C0 24.8366 7.16344 32 16 32Z"/>
</mask>
<path fill-rule="evenodd" clip-rule="evenodd" d="M16 30.4762C23.995 30.4762 30.4762 23.995 30.4762 16C30.4762 8.00502 23.995 1.52381 16 1.52381C8.00502 1.52381 1.52381 8.00502 1.52381 16C1.52381 23.995 8.00502 30.4762 16 30.4762ZM16 32C24.8366 32 32 24.8366 32 16C32 7.16344 24.8366 0 16 0C7.16344 0 0 7.16344 0 16C0 24.8366 7.16344 32 16 32Z" fill="white"/>
<path d="M28.9524 16C28.9524 23.1534 23.1534 28.9524 16 28.9524V32C24.8366 32 32 24.8366 32 16H28.9524ZM16 3.04762C23.1534 3.04762 28.9524 8.8466 28.9524 16H32C32 7.16344 24.8366 0 16 0V3.04762ZM3.04762 16C3.04762 8.8466 8.8466 3.04762 16 3.04762V0C7.16344 0 0 7.16344 0 16H3.04762ZM16 28.9524C8.8466 28.9524 3.04762 23.1534 3.04762 16H0C0 24.8366 7.16344 32 16 32V28.9524ZM30.4762 16C30.4762 23.995 23.995 30.4762 16 30.4762V33.5238C25.6781 33.5238 33.5238 25.6781 33.5238 16H30.4762ZM16 1.52381C23.995 1.52381 30.4762 8.00502 30.4762 16H33.5238C33.5238 6.32187 25.6781 -1.52381 16 -1.52381V1.52381ZM1.52381 16C1.52381 8.00502 8.00502 1.52381 16 1.52381V-1.52381C6.32187 -1.52381 -1.52381 6.32187 -1.52381 16H1.52381ZM16 30.4762C8.00502 30.4762 1.52381 23.995 1.52381 16H-1.52381C-1.52381 25.6781 6.32187 33.5238 16 33.5238V30.4762Z" fill="white" mask="url(#path-2-inside-1)"/>
</svg>
