<svg width="40" height="40" viewBox="0 0 40 40" fill="none" xmlns="http://www.w3.org/2000/svg">
<path d="M20 0C31 0 40 9 40 20C40 31 31 40 20 40C9 40 0 30.9999 0 20C0 9.00014 9 0 20 0Z" fill="#DD4B39"/>
<path d="M30.1251 16.6249V18.8749H32.375V21.125H30.1251V23.375H27.875V21.125H25.625V18.8749H27.875V16.6249H30.1251Z" fill="white"/>
<path d="M9.87525 25.6249C6.87525 22.6249 6.87525 17.3749 10.0002 14.375C12.2502 12.125 15.5001 11.625 18.3752 12.75L19.5001 13.375L20.7502 14.25L18.7502 16.25L18.0002 15.7501C16.2502 14.6252 13.7502 14.8751 12.1253 16.5001C10.2502 18.3751 10.1253 21.7501 12.1253 23.7501C14.0003 25.7501 17.3753 25.7501 19.1253 23.7501C19.6252 23.2502 20.1253 22.5001 20.2502 21.7501V21.5001H15.7503V19.0001H22.8752L23.0002 19.6252V21.3751C22.8752 23.0001 22.2502 24.6252 21.1251 25.7501C18.1253 28.6249 12.8752 28.6249 9.87525 25.6249Z" fill="white"/>
</svg>
