<svg width="32" height="32" viewBox="0 0 32 32" fill="none" xmlns="http://www.w3.org/2000/svg">
<path d="M16.0002 0C9.78013 0.00710944 4.73953 5.0477 4.73242 11.2678C4.73242 17.3079 15.1326 30.8738 15.5753 31.4479L16.0002 32L16.4252 31.4479C16.8678 30.8738 27.268 17.3079 27.268 11.2678C27.2609 5.0477 22.2203 0.00710944 16.0002 0ZM16.0002 30.2304C14.0198 27.5793 5.80555 16.2868 5.80555 11.2678C5.80555 5.63745 10.3699 1.07312 16.0002 1.07312C21.6306 1.07312 26.1949 5.63745 26.1949 11.2678C26.1949 16.2857 17.9807 27.5793 16.0002 30.2304Z" fill="white"/>
<path d="M16.0001 7.51187C13.9257 7.51187 12.2441 9.19346 12.2441 11.2678C12.2441 13.3421 13.9257 15.0237 16.0001 15.0237C18.0744 15.0237 19.756 13.3421 19.756 11.2678C19.7537 9.19446 18.0734 7.51422 16.0001 7.51187ZM16.0001 13.9506C14.5184 13.9506 13.3173 12.7495 13.3173 11.2678C13.3173 9.78615 14.5184 8.58499 16.0001 8.58499C17.4817 8.58499 18.6829 9.78615 18.6829 11.2678C18.6811 12.7487 17.481 13.9489 16.0001 13.9506Z" fill="white"/>
</svg>
