<svg width="32" height="32" viewBox="0 0 32 32" fill="none" xmlns="http://www.w3.org/2000/svg">
<path d="M18.5716 9.14285H13.4288C11.0622 9.14285 9.14307 11.062 9.14307 13.4286V18.5714C9.14307 20.938 11.0622 22.8571 13.4288 22.8571H18.5716C20.9382 22.8571 22.8574 20.938 22.8574 18.5714V13.4286C22.8574 11.062 20.9382 9.14285 18.5716 9.14285ZM21.5716 18.5714C21.5716 20.2257 20.2259 21.5714 18.5716 21.5714H13.4288C11.7745 21.5714 10.4288 20.2257 10.4288 18.5714V13.4286C10.4288 11.7743 11.7745 10.4286 13.4288 10.4286H18.5716C20.2259 10.4286 21.5716 11.7743 21.5716 13.4286V18.5714Z" fill="white"/>
<path d="M15.9999 12.5714C14.1064 12.5714 12.5713 14.1066 12.5713 16C12.5713 17.8934 14.1064 19.4286 15.9999 19.4286C17.8933 19.4286 19.4284 17.8934 19.4284 16C19.4284 14.1066 17.8933 12.5714 15.9999 12.5714ZM15.9999 18.1429C14.8187 18.1429 13.857 17.1812 13.857 16C13.857 14.818 14.8187 13.8572 15.9999 13.8572C17.181 13.8572 18.1427 14.818 18.1427 16C18.1427 17.1812 17.181 18.1429 15.9999 18.1429Z" fill="white"/>
<path d="M19.6859 12.7711C19.9382 12.7711 20.1427 12.5666 20.1427 12.3143C20.1427 12.062 19.9382 11.8574 19.6859 11.8574C19.4335 11.8574 19.229 12.062 19.229 12.3143C19.229 12.5666 19.4335 12.7711 19.6859 12.7711Z" fill="white"/>
<mask id="path-4-inside-1" fill="white">
<path fill-rule="evenodd" clip-rule="evenodd" d="M16 30.4762C23.995 30.4762 30.4762 23.995 30.4762 16C30.4762 8.00502 23.995 1.52381 16 1.52381C8.00502 1.52381 1.52381 8.00502 1.52381 16C1.52381 23.995 8.00502 30.4762 16 30.4762ZM16 32C24.8366 32 32 24.8366 32 16C32 7.16344 24.8366 0 16 0C7.16344 0 0 7.16344 0 16C0 24.8366 7.16344 32 16 32Z"/>
</mask>
<path fill-rule="evenodd" clip-rule="evenodd" d="M16 30.4762C23.995 30.4762 30.4762 23.995 30.4762 16C30.4762 8.00502 23.995 1.52381 16 1.52381C8.00502 1.52381 1.52381 8.00502 1.52381 16C1.52381 23.995 8.00502 30.4762 16 30.4762ZM16 32C24.8366 32 32 24.8366 32 16C32 7.16344 24.8366 0 16 0C7.16344 0 0 7.16344 0 16C0 24.8366 7.16344 32 16 32Z" fill="white"/>
<path d="M28.9524 16C28.9524 23.1534 23.1534 28.9524 16 28.9524V32C24.8366 32 32 24.8366 32 16H28.9524ZM16 3.04762C23.1534 3.04762 28.9524 8.8466 28.9524 16H32C32 7.16344 24.8366 0 16 0V3.04762ZM3.04762 16C3.04762 8.8466 8.8466 3.04762 16 3.04762V0C7.16344 0 0 7.16344 0 16H3.04762ZM16 28.9524C8.8466 28.9524 3.04762 23.1534 3.04762 16H0C0 24.8366 7.16344 32 16 32V28.9524ZM30.4762 16C30.4762 23.995 23.995 30.4762 16 30.4762V33.5238C25.6781 33.5238 33.5238 25.6781 33.5238 16H30.4762ZM16 1.52381C23.995 1.52381 30.4762 8.00502 30.4762 16H33.5238C33.5238 6.32187 25.6781 -1.52381 16 -1.52381V1.52381ZM1.52381 16C1.52381 8.00502 8.00502 1.52381 16 1.52381V-1.52381C6.32187 -1.52381 -1.52381 6.32187 -1.52381 16H1.52381ZM16 30.4762C8.00502 30.4762 1.52381 23.995 1.52381 16H-1.52381C-1.52381 25.6781 6.32187 33.5238 16 33.5238V30.4762Z" fill="white" mask="url(#path-4-inside-1)"/>
</svg>
