<svg width="20" height="20" viewBox="0 0 20 20" fill="none" xmlns="http://www.w3.org/2000/svg">
<path d="M13.6735 0.204102H6.32655C2.94573 0.204102 0.204102 2.94573 0.204102 6.32655V13.6735C0.204102 17.0543 2.94573 19.7959 6.32655 19.7959H13.6735C17.0543 19.7959 19.7959 17.0543 19.7959 13.6735V6.32655C19.7959 2.94573 17.0543 0.204102 13.6735 0.204102ZM17.9592 13.6735C17.9592 16.0368 16.0368 17.9592 13.6735 17.9592H6.32655C3.96328 17.9592 2.04084 16.0368 2.04084 13.6735V6.32655C2.04084 3.96328 3.96328 2.04084 6.32655 2.04084H13.6735C16.0368 2.04084 17.9592 3.96328 17.9592 6.32655V13.6735Z" fill="#188288"/>
<path d="M10 5.10205C7.29511 5.10205 5.10205 7.29511 5.10205 10C5.10205 12.7049 7.29511 14.898 10 14.898C12.7049 14.898 14.898 12.7049 14.898 10C14.898 7.29511 12.7049 5.10205 10 5.10205ZM10 13.0612C8.31266 13.0612 6.93879 11.6874 6.93879 10C6.93879 8.31144 8.31266 6.93879 10 6.93879C11.6874 6.93879 13.0612 8.31144 13.0612 10C13.0612 11.6874 11.6874 13.0612 10 13.0612Z" fill="#188288"/>
<path d="M15.2654 5.38733C15.6259 5.38733 15.9181 5.09513 15.9181 4.73468C15.9181 4.37423 15.6259 4.08203 15.2654 4.08203C14.905 4.08203 14.6128 4.37423 14.6128 4.73468C14.6128 5.09513 14.905 5.38733 15.2654 5.38733Z" fill="#188288"/>
</svg>
