<svg width="16" height="16" viewBox="0 0 16 16" fill="none" xmlns="http://www.w3.org/2000/svg">
<path d="M7.72831 15.0832H3.55513C2.421 15.0832 1.50079 14.1596 1.50079 13.0289V2.97114C1.50079 1.83701 2.4244 0.916808 3.55513 0.916808H7.79622C8.05089 0.916808 8.25463 0.713073 8.25463 0.458404C8.25463 0.203735 8.05089 0 7.79622 0H3.55513C1.91506 0 0.583984 1.33447 0.583984 2.97114V13.0289C0.583984 14.6689 1.91845 16 3.55513 16H7.72831C7.98298 16 8.18672 15.7963 8.18672 15.5416C8.18672 15.2869 7.97959 15.0832 7.72831 15.0832Z" fill="#188288"/>
<path d="M15.2803 7.67741L12.3668 4.764C12.1869 4.58404 11.8982 4.58404 11.7183 4.764C11.5383 4.94397 11.5383 5.23259 11.7183 5.41256L13.8507 7.54498H4.5502C4.29553 7.54498 4.0918 7.74872 4.0918 8.00338C4.0918 8.25805 4.29553 8.46179 4.5502 8.46179H13.8507L11.7183 10.5942C11.5383 10.7742 11.5383 11.0628 11.7183 11.2428C11.8066 11.3311 11.9254 11.3786 12.0409 11.3786C12.1563 11.3786 12.2752 11.3344 12.3634 11.2428L15.2769 8.32936C15.4602 8.146 15.4602 7.85398 15.2803 7.67741Z" fill="#188288"/>
</svg>
