<svg width="40" height="40" viewBox="0 0 40 40" fill="none" xmlns="http://www.w3.org/2000/svg">
<g clip-path="url(#clip0)">
<path d="M40.0156 20.0005C40.0156 26.6036 34.6823 32.0005 28.0156 32.0005C21.4124 32.0005 16.0156 26.6036 16.0156 20.0005C16.0156 13.3973 21.349 8.00047 27.9521 8.00047C34.6823 8.00047 40.0156 13.3973 40.0156 20.0005Z" fill="#FFB600"/>
<path d="M28.0156 8.00047C34.6188 8.00047 40.0156 13.3973 40.0156 20.0005C40.0156 26.6036 34.6823 32.0005 28.0156 32.0005C21.4124 32.0005 16.0156 26.6036 16.0156 20.0005" fill="#F7981D"/>
<path d="M28.0078 8.00047C34.611 8.00047 40.0078 13.3973 40.0078 20.0005C40.0078 26.6036 34.6745 32.0005 28.0078 32.0005" fill="#FF8500"/>
<path d="M11.873 8.00047C5.33333 8.06397 0 13.3973 0 20.0005C0 26.6036 5.33333 32.0005 12 32.0005C15.1111 32.0005 17.9048 30.7941 20.0635 28.8894C20.5079 28.5084 20.8889 28.064 21.2698 27.6195H18.7937C18.4762 27.2386 18.1587 26.7941 17.9048 26.4132H22.1587C22.4127 26.0322 22.6667 25.5878 22.8571 25.1433H17.2064C17.0159 24.7624 16.8254 24.3179 16.6984 23.8735H23.3016C23.6825 22.6671 23.9365 21.3973 23.9365 20.064C23.9365 19.1751 23.8095 18.3497 23.6825 17.5243H16.3175C16.381 17.0798 16.5079 16.6989 16.6349 16.2544H23.2381C23.1111 15.81 22.9206 15.3656 22.7302 14.9846H17.1429C17.3333 14.5402 17.5873 14.1592 17.8413 13.7148H22.0952C21.8413 13.2703 21.5238 12.8259 21.1429 12.4449H18.7937C19.1746 12.0005 19.5556 11.6195 20 11.2386C17.9048 9.27031 15.0476 8.12746 11.9365 8.12746C11.9365 8.00047 11.9365 8.00047 11.873 8.00047Z" fill="#FF5050"/>
<path d="M0 19.9999C0 26.603 5.33333 31.9999 12 31.9999C15.1111 31.9999 17.9048 30.7935 20.0635 28.8888C20.5079 28.5078 20.8889 28.0634 21.2698 27.6189H18.7937C18.4762 27.238 18.1587 26.7935 17.9048 26.4126H22.1587C22.4127 26.0316 22.6667 25.5872 22.8571 25.1427H17.2064C17.0159 24.7618 16.8254 24.3173 16.6984 23.8729H23.3016C23.6825 22.6665 23.9365 21.3967 23.9365 20.0634C23.9365 19.1745 23.8095 18.3491 23.6825 17.5237H16.3175C16.381 17.0792 16.5079 16.6983 16.6349 16.2538H23.2381C23.1111 15.8094 22.9206 15.3649 22.7302 14.984H17.1429C17.3333 14.5395 17.5873 14.1586 17.8413 13.7141H22.0952C21.8413 13.2697 21.5238 12.8253 21.1429 12.4443H18.7937C19.1746 11.9999 19.5556 11.6189 20 11.238C17.9048 9.2697 15.0476 8.12685 11.9365 8.12685H11.873" fill="#E52836"/>
<path d="M12.002 31.9999C15.1131 31.9999 17.9067 30.7935 20.0655 28.8888C20.5099 28.5078 20.8909 28.0634 21.2718 27.6189H18.7956C18.4782 27.238 18.1607 26.7935 17.9067 26.4126H22.1607C22.4147 26.0316 22.6686 25.5872 22.8591 25.1427H17.2083C17.0179 24.7618 16.8274 24.3173 16.7004 23.8729H23.3036C23.6845 22.6665 23.9385 21.3967 23.9385 20.0634C23.9385 19.1745 23.8115 18.3491 23.6845 17.5237H16.3194C16.3829 17.0792 16.5099 16.6983 16.6369 16.2538H23.2401C23.1131 15.8094 22.9226 15.3649 22.7321 14.984H17.1448C17.3353 14.5395 17.5893 14.1586 17.8433 13.7141H22.0972C21.8433 13.2697 21.5258 12.8253 21.1448 12.4443H18.7956C19.1766 11.9999 19.5575 11.6189 20.002 11.238C17.9067 9.2697 15.0496 8.12685 11.9385 8.12685H11.875" fill="#CB2026"/>
<path d="M16.2553 23.0476L16.4458 21.9683C16.3823 21.9683 16.2553 22.0318 16.1283 22.0318C15.6839 22.0318 15.6204 21.7778 15.6839 21.6508L16.0649 19.4286H16.7633L16.9537 18.2222H16.3188L16.4458 17.4603H15.176C15.176 17.4603 14.4141 21.6508 14.4141 22.1587C14.4141 22.9206 14.8585 23.2381 15.4299 23.2381C15.8109 23.2381 16.1283 23.1111 16.2553 23.0476Z" fill="white"/>
<path d="M16.6992 21.0158C16.6992 22.7936 17.9056 23.2381 18.9214 23.2381C19.8738 23.2381 20.2548 23.0476 20.2548 23.0476L20.5087 21.8412C20.5087 21.8412 19.8103 22.1587 19.1754 22.1587C17.7786 22.1587 18.0326 21.1428 18.0326 21.1428H20.6357C20.6357 21.1428 20.8262 20.3174 20.8262 20C20.8262 19.1746 20.3818 18.1587 18.9849 18.1587C17.6516 18.0317 16.6992 19.4285 16.6992 21.0158ZM18.9214 19.1746C19.6199 19.1746 19.4929 20 19.4929 20.0634H18.096C18.096 20 18.223 19.1746 18.9214 19.1746Z" fill="white"/>
<path d="M26.9882 23.0477L27.2421 21.6509C27.2421 21.6509 26.6072 21.9684 26.1628 21.9684C25.2739 21.9684 24.8929 21.27 24.8929 20.5081C24.8929 18.9843 25.6548 18.1589 26.5437 18.1589C27.1786 18.1589 27.6866 18.5398 27.6866 18.5398L27.877 17.2065C27.877 17.2065 27.1151 16.889 26.4167 16.889C24.9564 16.889 23.4961 18.1589 23.4961 20.5716C23.4961 22.1589 24.258 23.2382 25.7818 23.2382C26.2897 23.2382 26.9882 23.0477 26.9882 23.0477Z" fill="white"/>
<path d="M9.26817 18.0316C8.37928 18.0316 7.74436 18.2856 7.74436 18.2856L7.55388 19.365C7.55388 19.365 8.12531 19.111 8.95071 19.111C9.39516 19.111 9.77611 19.1745 9.77611 19.5554C9.77611 19.8094 9.71262 19.8729 9.71262 19.8729C9.71262 19.8729 9.33167 19.8729 9.14119 19.8729C8.06182 19.8729 6.85547 20.3173 6.85547 21.7776C6.85547 22.9205 7.61738 23.1745 8.06182 23.1745C8.95071 23.1745 9.33167 22.603 9.39516 22.603L9.33167 23.111H10.4745L10.9825 19.6189C10.9825 18.0951 9.71262 18.0316 9.26817 18.0316ZM9.52214 20.8888C9.52214 21.0792 9.39516 22.0951 8.63325 22.0951C8.2523 22.0951 8.12531 21.7776 8.12531 21.5872C8.12531 21.2697 8.31579 20.8253 9.26817 20.8253C9.45865 20.8888 9.52214 20.8888 9.52214 20.8888Z" fill="white"/>
<path d="M12.2025 23.1745C12.52 23.1745 14.1073 23.238 14.1073 21.5237C14.1073 19.9364 12.5835 20.2538 12.5835 19.6189C12.5835 19.3015 12.8374 19.1745 13.2819 19.1745C13.4723 19.1745 14.1708 19.238 14.1708 19.238L14.3612 18.0951C14.3612 18.0951 13.9168 17.9681 13.1549 17.9681C12.2025 17.9681 11.2501 18.3491 11.2501 19.6189C11.2501 21.0792 12.8374 20.9523 12.8374 21.5237C12.8374 21.9046 12.393 21.9681 12.0755 21.9681C11.5041 21.9681 10.9327 21.7776 10.9327 21.7776L10.7422 22.9205C10.8057 23.0475 11.1231 23.1745 12.2025 23.1745Z" fill="white"/>
<path d="M37.5448 17.016L37.2909 18.7303C37.2909 18.7303 36.7829 18.0954 36.0845 18.0954C34.9417 18.0954 33.9258 19.4922 33.9258 21.143C33.9258 22.1588 34.4337 23.2382 35.5131 23.2382C36.275 23.2382 36.7194 22.7303 36.7194 22.7303L36.6559 23.1747H37.9258L38.8782 17.0795L37.5448 17.016ZM36.9734 20.3811C36.9734 21.0795 36.6559 21.9684 35.9575 21.9684C35.5131 21.9684 35.2591 21.5874 35.2591 20.9525C35.2591 19.9366 35.7036 19.3017 36.275 19.3017C36.7194 19.3017 36.9734 19.6192 36.9734 20.3811Z" fill="white"/>
<path d="M2.35869 23.1112L3.1206 18.5398L3.24758 23.1112H4.13647L5.78726 18.5398L5.08885 23.1112H6.42219L7.43806 17.016H5.34282L4.07298 20.762L4.00949 17.016H2.16822L1.15234 23.1112H2.35869Z" fill="white"/>
<path d="M22.0414 23.1115C22.4223 21.0163 22.4858 19.302 23.3747 19.6195C23.5017 18.7941 23.6921 18.4766 23.8191 18.1592C23.8191 18.1592 23.7556 18.1592 23.5652 18.1592C22.9937 18.1592 22.5493 18.9211 22.5493 18.9211L22.6763 18.2227H21.4699L20.6445 23.175H22.0414V23.1115Z" fill="white"/>
<path d="M29.9127 18.0316C29.0238 18.0316 28.3889 18.2856 28.3889 18.2856L28.1984 19.365C28.1984 19.365 28.7698 19.111 29.5952 19.111C30.0397 19.111 30.4206 19.1745 30.4206 19.5554C30.4206 19.8094 30.3571 19.8729 30.3571 19.8729C30.3571 19.8729 29.9762 19.8729 29.7857 19.8729C28.7064 19.8729 27.5 20.3173 27.5 21.7776C27.5 22.9205 28.2619 23.1745 28.7064 23.1745C29.5952 23.1745 29.9762 22.603 30.0397 22.603L29.9762 23.111H31.1191L31.627 19.6189C31.6905 18.0951 30.3571 18.0316 29.9127 18.0316ZM30.2302 20.8888C30.2302 21.0792 30.1032 22.0951 29.3413 22.0951C28.9603 22.0951 28.8333 21.7776 28.8333 21.5872C28.8333 21.2697 29.0238 20.8253 29.9762 20.8253C30.1667 20.8888 30.1667 20.8888 30.2302 20.8888Z" fill="white"/>
<path d="M32.7054 23.1115C33.0864 21.0163 33.1499 19.302 34.0388 19.6195C34.1657 18.7941 34.3562 18.4766 34.4832 18.1592C34.4832 18.1592 34.4197 18.1592 34.2292 18.1592C33.6578 18.1592 33.2134 18.9211 33.2134 18.9211L33.3403 18.2227H32.134L31.3086 23.175H32.7054V23.1115Z" fill="white"/>
<path d="M14.2969 22.1587C14.2969 22.9206 14.7413 23.2381 15.3127 23.2381C15.7572 23.2381 16.1381 23.1111 16.2651 23.0476L16.4556 21.9683C16.3921 21.9683 16.2651 22.0318 16.1381 22.0318C15.6937 22.0318 15.6302 21.7778 15.6937 21.6508L16.0747 19.4286H16.7731L16.9635 18.2222H16.3286L16.4556 17.4603" fill="#DCE5E5"/>
<path d="M17.3438 21.0158C17.3438 22.7936 17.9152 23.2381 18.9311 23.2381C19.8834 23.2381 20.2644 23.0476 20.2644 23.0476L20.5184 21.8412C20.5184 21.8412 19.8199 22.1587 19.185 22.1587C17.7882 22.1587 18.0422 21.1428 18.0422 21.1428H20.6453C20.6453 21.1428 20.8358 20.3174 20.8358 20C20.8358 19.1746 20.3914 18.1587 18.9945 18.1587C17.6612 18.0317 17.3438 19.4285 17.3438 21.0158ZM18.9311 19.1746C19.6295 19.1746 19.7565 20 19.7565 20.0634H18.1057C18.1057 20 18.2326 19.1746 18.9311 19.1746Z" fill="#DCE5E5"/>
<path d="M26.9978 23.0477L27.2517 21.6509C27.2517 21.6509 26.6168 21.9684 26.1724 21.9684C25.2835 21.9684 24.9025 21.27 24.9025 20.5081C24.9025 18.9843 25.6644 18.1589 26.5533 18.1589C27.1882 18.1589 27.6962 18.5398 27.6962 18.5398L27.8867 17.2065C27.8867 17.2065 27.1248 16.889 26.4263 16.889C24.966 16.889 24.1406 18.1589 24.1406 20.5716C24.1406 22.1589 24.2676 23.2382 25.7914 23.2382C26.2994 23.2382 26.9978 23.0477 26.9978 23.0477Z" fill="#DCE5E5"/>
<path d="M7.55388 19.429C7.55388 19.429 8.12531 19.175 8.95071 19.175C9.39516 19.175 9.77611 19.2385 9.77611 19.6195C9.77611 19.8735 9.71262 19.937 9.71262 19.937C9.71262 19.937 9.33167 19.937 9.14119 19.937C8.06182 19.937 6.85547 20.3814 6.85547 21.8417C6.85547 22.9846 7.61738 23.2385 8.06182 23.2385C8.95071 23.2385 9.33167 22.6671 9.39516 22.6671L9.33167 23.175H10.4745L10.9825 19.683C10.9825 18.2227 9.71262 18.1592 9.20468 18.1592L7.55388 19.429ZM10.1571 20.8893C10.1571 21.0798 9.39516 22.0957 8.63325 22.0957C8.2523 22.0957 8.12531 21.7782 8.12531 21.5877C8.12531 21.2703 8.31579 20.8258 9.26817 20.8258C9.45865 20.8893 10.1571 20.8893 10.1571 20.8893Z" fill="#DCE5E5"/>
<path d="M10.8008 23.0475C10.8008 23.0475 11.1817 23.1745 12.2611 23.1745C12.5786 23.1745 14.1659 23.238 14.1659 21.5237C14.1659 19.9364 12.6421 20.2538 12.6421 19.6189C12.6421 19.3015 12.896 19.1745 13.3405 19.1745C13.5309 19.1745 14.2294 19.238 14.2294 19.238L14.4198 18.0951C14.4198 18.0951 13.9754 17.9681 13.2135 17.9681C12.2611 17.9681 11.9436 18.3491 11.9436 19.6189C11.9436 21.0792 12.896 20.9523 12.896 21.5237C12.896 21.9046 12.4516 21.9681 12.1341 21.9681" fill="#DCE5E5"/>
<path d="M37.2855 18.7303C37.2855 18.7303 36.7776 18.0953 36.0792 18.0953C34.9363 18.0953 34.5554 19.4922 34.5554 21.1429C34.5554 22.1588 34.4284 23.2382 35.5078 23.2382C36.2697 23.2382 36.7141 22.7302 36.7141 22.7302L36.6506 23.1747H37.9204L38.8728 17.0795L37.2855 18.7303ZM37.222 20.381C37.222 21.0795 36.6506 21.9683 35.9522 21.9683C35.5078 21.9683 35.2538 21.5874 35.2538 20.9525C35.2538 19.9366 35.6982 19.3017 36.2697 19.3017C36.7141 19.3017 37.222 19.6191 37.222 20.381Z" fill="#DCE5E5"/>
<path d="M2.35869 23.1112L3.1206 18.5398L3.24758 23.1112H4.13647L5.78726 18.5398L5.08885 23.1112H6.42219L7.43806 17.016H5.85076L4.07298 20.762L4.00949 17.016H3.31107L1.15234 23.1112H2.35869Z" fill="#DCE5E5"/>
<path d="M20.7031 23.1116H22.0365C22.4174 21.0163 22.4809 19.302 23.3698 19.6195C23.4968 18.7941 23.6872 18.4766 23.8142 18.1592C23.8142 18.1592 23.7507 18.1592 23.5602 18.1592C22.9888 18.1592 22.5444 18.9211 22.5444 18.9211L22.6714 18.2227" fill="#DCE5E5"/>
<path d="M28.1984 19.429C28.1984 19.429 28.7698 19.175 29.5952 19.175C30.0397 19.175 30.4206 19.2385 30.4206 19.6195C30.4206 19.8735 30.3571 19.937 30.3571 19.937C30.3571 19.937 29.9762 19.937 29.7857 19.937C28.7064 19.937 27.5 20.3814 27.5 21.8417C27.5 22.9846 28.2619 23.2385 28.7064 23.2385C29.5952 23.2385 29.9762 22.6671 30.0397 22.6671L29.9762 23.175H31.1191L31.627 19.683C31.627 18.2227 30.3571 18.1592 29.8492 18.1592L28.1984 19.429ZM30.8016 20.8893C30.8016 21.0798 30.0397 22.0957 29.2778 22.0957C28.8968 22.0957 28.7698 21.7782 28.7698 21.5877C28.7698 21.2703 28.9603 20.8258 29.9127 20.8258C30.1667 20.8893 30.8016 20.8893 30.8016 20.8893Z" fill="#DCE5E5"/>
<path d="M31.3672 23.1116H32.7005C33.0815 21.0163 33.145 19.302 34.0339 19.6195C34.1608 18.7941 34.3513 18.4766 34.4783 18.1592C34.4783 18.1592 34.4148 18.1592 34.2243 18.1592C33.6529 18.1592 33.2085 18.9211 33.2085 18.9211L33.3354 18.2227" fill="#DCE5E5"/>
</g>
<defs>
<clipPath id="clip0">
<rect width="40" height="40" fill="white"/>
</clipPath>
</defs>
</svg>
