<svg width="48" height="48" viewBox="0 0 48 48" fill="none" xmlns="http://www.w3.org/2000/svg">
<path d="M16.8745 14.9436C11.7722 14.9436 7.63452 19.0813 7.63452 24.1836C7.63452 29.2878 11.7722 33.4254 16.8745 33.4254C21.9787 33.4254 26.1164 29.2878 26.1164 24.1836C26.111 19.0831 21.9769 14.949 16.8745 14.9436ZM16.8745 32.045C12.5335 32.045 9.01494 28.5265 9.01494 24.1836C9.01494 19.8426 12.5335 16.324 16.8745 16.324C21.2174 16.324 24.7359 19.8426 24.7359 24.1836C24.7323 28.5247 21.2156 32.045 16.8745 32.0486V32.045Z" fill="white"/>
<path d="M45.419 33.2275C44.0404 33.2293 42.9245 34.3451 42.9227 35.7238V36.8324H33.7511V19.9614C33.7547 18.023 33.3083 16.1081 32.4498 14.3695L33.042 13.7756C34.129 12.6867 34.129 10.9229 33.042 9.83407L31.0046 7.79673C29.9158 6.71147 28.152 6.71147 27.0631 7.79673L26.3954 8.46265C24.7378 7.69595 22.9345 7.2982 21.1077 7.3H12.6524C5.66387 7.3072 0.00359954 12.9729 0 19.9614V28.4113C0.0179977 35.389 5.67467 41.0385 12.6524 41.0457H44.3895C46.3369 41.0439 47.9135 39.4655 47.9171 37.5181V35.7328C47.9207 34.3523 46.8012 33.2293 45.419 33.2275ZM44.3013 35.7238C44.3013 35.1064 44.8035 34.6043 45.4226 34.6043C46.0399 34.6043 46.542 35.1064 46.542 35.7238V36.8324H44.3013V35.7238ZM28.0332 8.78481C28.5839 8.23768 29.4748 8.23768 30.0256 8.78481L32.0629 10.8221C32.61 11.3747 32.61 12.2638 32.0629 12.8145L31.7407 13.1366C30.7005 11.5187 29.3074 10.1562 27.6661 9.15376L28.0332 8.78481ZM1.35703 28.4113V19.9614C1.36423 13.7306 6.42158 8.68582 12.6524 8.69302H21.0969C22.8931 8.69122 24.664 9.12316 26.2586 9.94926C28.233 10.9751 29.8636 12.5607 30.9452 14.5063C31.8703 16.1729 32.3545 18.0482 32.3527 19.9524V39.667H12.6524C6.43597 39.6617 1.39482 34.6277 1.38042 28.4113H1.35703ZM44.3895 39.667H33.7511V38.2218H46.4215C46.1209 39.0875 45.3056 39.667 44.3895 39.667Z" fill="white"/>
</svg>
