<svg width="16" height="16" viewBox="0 0 16 16" fill="none" xmlns="http://www.w3.org/2000/svg">
<g clip-path="url(#clip0)">
<path d="M13.9782 0.595036C13.1829 -0.198386 11.8957 -0.198386 11.1006 0.595036L1.45183 10.2438C1.33435 10.3612 1.30017 10.5385 1.36551 10.6914L0.0611576 15.4863C0.0226867 15.6276 0.0632242 15.7788 0.167191 15.882C0.271317 15.9851 0.422816 16.0244 0.563823 15.9848L5.32261 14.6472C5.47506 14.7113 5.65104 14.6767 5.76788 14.5598L15.4166 4.91109C16.2111 4.1164 16.2111 2.8281 15.4166 2.0334L13.9782 0.595036ZM10.5353 2.31112L13.6832 5.4934L5.47999 13.6964L2.31504 10.5315L10.5353 2.31112ZM2.01968 11.3872L4.62918 13.9966L1.03501 15.007L2.01968 11.3872ZM14.841 4.33562L14.2588 4.91777L11.1109 1.73565L11.676 1.17067C12.1533 0.694552 12.9255 0.694552 13.4028 1.17067L14.8411 2.60904C15.3171 3.08611 15.3171 3.85854 14.841 4.33562Z" fill="#ACBBB6"/>
</g>
<defs>
<clipPath id="clip0">
<rect width="16" height="16" fill="white"/>
</clipPath>
</defs>
</svg>
