<svg width="24" height="24" viewBox="0 0 24 24" fill="none" xmlns="http://www.w3.org/2000/svg">
<path d="M0.853843 12.8541C0.381384 12.8541 0.00585938 12.4664 0.00585938 11.9939C0.00585938 11.5214 0.381384 11.1459 0.853843 11.1459H11.1388V0.860196C11.1396 0.387737 11.5273 0 11.9998 0C12.4722 0 12.8477 0.387737 12.8477 0.860196V11.1459H23.1327C23.6051 11.1459 23.9929 11.5214 23.9929 11.9939C23.9929 12.4664 23.6051 12.8541 23.1327 12.8541H12.8477V23.1398C12.8477 23.6123 12.4722 24 11.9998 24C11.5273 24 11.1396 23.6123 11.1396 23.1398V12.8541H0.853843Z" fill="#182328"/>
</svg>
