<svg width="14" height="14" viewBox="0 0 14 14" fill="none" xmlns="http://www.w3.org/2000/svg">
<path d="M7.77344 7.00078L13.8398 0.934366C14.0534 0.720784 14.0534 0.374503 13.8398 0.160949C13.6262 -0.0526051 13.28 -0.0526325 13.0664 0.160949L6.99999 6.22737L0.933603 0.160949C0.720021 -0.0526325 0.37374 -0.0526325 0.160186 0.160949C-0.0533681 0.374531 -0.0533954 0.720811 0.160186 0.934366L6.22658 7.00076L0.160186 13.0672C-0.0533954 13.2808 -0.0533954 13.627 0.160186 13.8406C0.266963 13.9474 0.406936 14.0007 0.546908 14.0007C0.686881 14.0007 0.826826 13.9474 0.93363 13.8406L6.99999 7.7742L13.0664 13.8406C13.1732 13.9474 13.3131 14.0007 13.4531 14.0007C13.5931 14.0007 13.733 13.9474 13.8398 13.8406C14.0534 13.627 14.0534 13.2807 13.8398 13.0672L7.77344 7.00078Z" fill="#6F6F6F"/>
</svg>
