<svg width="32" height="32" viewBox="0 0 32 32" fill="none" xmlns="http://www.w3.org/2000/svg">
<path d="M31.3043 11.826H0.695673C0.311674 11.826 0 12.1377 0 12.5217C0 12.9057 0.311674 13.2173 0.695673 13.2173H31.3043C31.6883 13.2173 32 12.9057 32 12.5217C32 12.1377 31.6883 11.826 31.3043 11.826Z" fill="#182328"/>
<path d="M30.0954 11.851C29.7281 11.7509 29.3412 11.9679 29.2411 12.3394L25.6265 25.5929C25.3802 26.4973 24.5524 27.1303 23.6133 27.1303H8.38685C7.44772 27.1303 6.61991 26.4972 6.37222 25.5929L2.75768 12.3394C2.6575 11.9665 2.2735 11.7509 1.90483 11.8497C1.53335 11.9512 1.31494 12.3338 1.41648 12.704L5.03109 25.9589C5.44294 27.4685 6.8217 28.5217 8.38691 28.5217H23.6133C25.1786 28.5217 26.5573 27.4685 26.9692 25.9589L30.5838 12.7054C30.6853 12.3352 30.4668 11.9527 30.0954 11.851Z" fill="#182328"/>
<path d="M14.994 3.59502C14.6726 3.38215 14.2413 3.46981 14.0298 3.78839L8.46464 12.1362C8.25177 12.4562 8.33805 12.8875 8.65801 13.1004C8.77768 13.1797 8.91125 13.2173 9.04338 13.2173C9.2674 13.2173 9.48862 13.1087 9.62218 12.907L15.1874 4.5592C15.4003 4.23924 15.314 3.80789 14.994 3.59502Z" fill="#182328"/>
<path d="M23.5338 12.1363L17.9686 3.78846C17.7558 3.46844 17.3245 3.38222 17.0045 3.59509C16.6844 3.80796 16.5982 4.23924 16.8111 4.55926L22.3763 12.9071C22.5112 13.1088 22.7311 13.2173 22.9565 13.2173C23.09 13.2173 23.2236 13.1798 23.3405 13.1005C23.6605 12.8876 23.7467 12.4562 23.5338 12.1363Z" fill="#182328"/>
<path d="M16.0001 14.6086C15.6161 14.6086 15.3044 14.9203 15.3044 15.3043V25.0434C15.3044 25.4274 15.6161 25.7391 16.0001 25.7391C16.3841 25.7391 16.6958 25.4274 16.6958 25.0434V15.3043C16.6958 14.9203 16.3841 14.6086 16.0001 14.6086Z" fill="#182328"/>
<path d="M20.9683 14.6157C20.5899 14.5628 20.2351 14.8257 20.1808 15.2055L18.7895 24.9447C18.7353 25.3258 18.9996 25.6779 19.3794 25.7322C19.4128 25.7377 19.4462 25.7391 19.4782 25.7391C19.8205 25.7391 20.1168 25.4887 20.1669 25.1423L21.5582 15.4031C21.6125 15.0219 21.3482 14.6699 20.9683 14.6157Z" fill="#182328"/>
<path d="M13.2103 24.9446L11.819 15.2055C11.7648 14.8243 11.4142 14.5572 11.0315 14.6156C10.6517 14.6699 10.3874 15.0233 10.4416 15.4031L11.8329 25.1422C11.883 25.4887 12.1807 25.7391 12.5216 25.7391C12.5536 25.7391 12.587 25.7363 12.6204 25.7321C13.0002 25.6779 13.2646 25.3245 13.2103 24.9446Z" fill="#182328"/>
<path d="M25.9285 14.635C25.564 14.5335 25.1744 14.7435 25.0687 15.1136L22.286 24.8528C22.1817 25.2214 22.3945 25.6069 22.7647 25.7126C22.8286 25.7306 22.8927 25.739 22.9567 25.739C23.26 25.739 23.5382 25.54 23.6245 25.2339L26.4071 15.4948C26.5115 15.1262 26.2986 14.7408 25.9285 14.635Z" fill="#182328"/>
<path d="M9.71399 24.8528L6.93136 15.1136C6.82564 14.7435 6.43747 14.5348 6.07154 14.635C5.70143 14.7407 5.48719 15.1262 5.59291 15.4948L8.37553 25.2339C8.46319 25.54 8.74147 25.739 9.04336 25.739C9.10597 25.739 9.16995 25.7306 9.23536 25.7126C9.60547 25.6069 9.81977 25.2215 9.71399 24.8528Z" fill="#182328"/>
</svg>
