<svg width="22" height="22" viewBox="0 0 22 22" fill="none" xmlns="http://www.w3.org/2000/svg">
<path d="M21.5217 8.13036H0.478276C0.214276 8.13036 0 8.34463 0 8.60863C0 8.87263 0.214276 9.08691 0.478276 9.08691H21.5217C21.7857 9.08691 22 8.87263 22 8.60863C22 8.34463 21.7857 8.13036 21.5217 8.13036Z" fill="white"/>
<path d="M20.6904 8.14758C20.4379 8.07871 20.1719 8.22793 20.1031 8.48332L17.618 17.5951C17.4487 18.2169 16.8796 18.6521 16.2339 18.6521H5.76578C5.12012 18.6521 4.55101 18.2168 4.38072 17.5951L1.89572 8.48332C1.82685 8.22699 1.56285 8.07871 1.30939 8.14664C1.054 8.21645 0.903838 8.47951 0.973649 8.73396L3.45869 17.8468C3.74184 18.8846 4.68973 19.6087 5.76582 19.6087H16.234C17.3101 19.6087 18.258 18.8846 18.5411 17.8468L21.0262 8.73495C21.096 8.48045 20.9458 8.21744 20.6904 8.14758Z" fill="white"/>
<path d="M10.3085 2.47159C10.0875 2.32524 9.79099 2.3855 9.64559 2.60453L5.81952 8.34365C5.67317 8.56367 5.73249 8.86017 5.95246 9.00652C6.03473 9.06104 6.12656 9.08687 6.2174 9.08687C6.37141 9.08687 6.5235 9.01226 6.61533 8.87358L10.4414 3.13445C10.5878 2.91449 10.5285 2.61793 10.3085 2.47159Z" fill="white"/>
<path d="M16.1797 8.3437L12.3536 2.60457C12.2073 2.38455 11.9108 2.32528 11.6908 2.47163C11.4707 2.61798 11.4115 2.91448 11.5578 3.1345L15.3839 8.87362C15.4766 9.01231 15.6278 9.08691 15.7827 9.08691C15.8746 9.08691 15.9664 9.06109 16.0467 9.00657C16.2668 8.86022 16.326 8.56367 16.1797 8.3437Z" fill="white"/>
<path d="M11.0002 10.0434C10.7362 10.0434 10.522 10.2577 10.522 10.5217V17.2173C10.522 17.4813 10.7362 17.6956 11.0002 17.6956C11.2642 17.6956 11.4785 17.4813 11.4785 17.2173V10.5217C11.4785 10.2577 11.2642 10.0434 11.0002 10.0434Z" fill="white"/>
<path d="M14.4159 10.0482C14.1557 10.0119 13.9118 10.1927 13.8745 10.4538L12.9179 17.1494C12.8806 17.4115 13.0624 17.6535 13.3235 17.6908C13.3464 17.6947 13.3694 17.6956 13.3914 17.6956C13.6267 17.6956 13.8305 17.5235 13.8649 17.2853L14.8214 10.5896C14.8587 10.3275 14.677 10.0855 14.4159 10.0482Z" fill="white"/>
<path d="M9.08215 17.1494L8.12564 10.4538C8.08834 10.1917 7.84729 10.0081 7.58423 10.0482C7.3231 10.0855 7.14138 10.3285 7.17868 10.5896L8.13519 17.2853C8.16962 17.5235 8.37431 17.6956 8.60867 17.6956C8.63068 17.6956 8.65364 17.6937 8.6766 17.6908C8.93773 17.6535 9.11945 17.4106 9.08215 17.1494Z" fill="white"/>
<path d="M17.8256 10.0616C17.575 9.99178 17.3072 10.1362 17.2345 10.3907L15.3214 17.0863C15.2497 17.3398 15.3961 17.6047 15.6505 17.6774C15.6945 17.6898 15.7385 17.6956 15.7825 17.6956C15.991 17.6956 16.1823 17.5588 16.2416 17.3484L18.1547 10.6527C18.2264 10.3993 18.0801 10.1343 17.8256 10.0616Z" fill="white"/>
<path d="M6.67846 17.0863L4.7654 10.3906C4.69272 10.1362 4.42585 9.99271 4.17427 10.0616C3.91982 10.1343 3.77253 10.3993 3.84522 10.6527L5.75827 17.3483C5.81853 17.5588 6.00985 17.6956 6.2174 17.6956C6.26045 17.6956 6.30443 17.6898 6.3494 17.6774C6.60385 17.6047 6.75119 17.3398 6.67846 17.0863Z" fill="white"/>
</svg>
