<svg width="32" height="32" viewBox="0 0 32 32" fill="none" xmlns="http://www.w3.org/2000/svg">
<path d="M6.40039 1.6V30.4C6.40143 31.2833 7.11706 31.999 8.00039 32H24.0004C24.8837 31.999 25.5993 31.2833 25.6004 30.4V1.6C25.5993 0.716667 24.8837 0.00104167 24.0004 0H8.00039C7.11706 0.00104167 6.40143 0.716667 6.40039 1.6ZM24.5337 30.4C24.5335 30.6945 24.2949 30.9331 24.0004 30.9333H8.00039C7.70586 30.9331 7.46732 30.6945 7.46706 30.4V26.6667H24.5337V30.4ZM24.5337 1.6V25.6H7.46706V1.6C7.46732 1.30547 7.70586 1.06693 8.00039 1.06667H24.0004C24.2949 1.06693 24.5335 1.30547 24.5337 1.6Z" fill="white"/>
<path d="M17.0669 28.8C17.0669 29.3891 16.5893 29.8667 16.0003 29.8667C15.4112 29.8667 14.9336 29.3891 14.9336 28.8C14.9336 28.211 15.4112 27.7334 16.0003 27.7334C16.5893 27.7334 17.0669 28.211 17.0669 28.8Z" fill="white"/>
<path d="M11.1992 28.2666H12.7992V29.3333H11.1992V28.2666Z" fill="white"/>
<path d="M19.1992 28.2666H20.7992V29.3333H19.1992V28.2666Z" fill="white"/>
<path d="M15.9996 19.7333C19.5342 19.7333 22.3996 16.868 22.3996 13.3333C22.3996 9.79868 19.5342 6.93332 15.9996 6.93332C12.465 6.93332 9.59961 9.79868 9.59961 13.3333C9.60352 16.8664 12.4665 19.7294 15.9996 19.7333ZM15.9996 7.99999C18.9452 7.99999 21.3329 10.3877 21.3329 13.3333C21.3329 16.2789 18.9452 18.6667 15.9996 18.6667C13.054 18.6667 10.6663 16.2789 10.6663 13.3333C10.6697 10.3893 13.0556 8.00337 15.9996 7.99999Z" fill="white"/>
<path d="M14.1135 15.219L13.3594 14.4646L14.1135 13.7104L14.868 14.4646L17.1305 12.2021L16.3763 11.4477L17.1305 10.6935L17.8849 11.4477C18.3008 11.8646 18.3008 12.5393 17.8849 12.9563L15.6221 15.219C15.2052 15.6349 14.5305 15.6349 14.1135 15.219Z" fill="white"/>
</svg>
