<svg width="20" height="24" viewBox="0 0 20 24" fill="none" xmlns="http://www.w3.org/2000/svg">
<path d="M19.381 23.3895V20.024C19.381 15.8594 16.6509 12.3202 12.8933 11.0991C14.7001 10.0815 15.9262 8.14561 15.9262 5.92678C15.9262 2.6606 13.2656 0 9.99939 0C6.73321 0 4.07261 2.6606 4.07261 5.92678C4.07261 8.14561 5.29867 10.0815 7.10549 11.0991C3.34293 12.3202 0.617798 15.8594 0.617798 20.024V23.3895C0.617798 23.727 0.890807 24 1.22835 24H18.7804C19.108 23.995 19.381 23.727 19.381 23.3895ZM5.28377 5.92678C5.28377 3.33071 7.39836 1.21613 9.99443 1.21613C12.5905 1.21613 14.7051 3.33071 14.7051 5.92678C14.7051 8.52285 12.5905 10.6374 9.99443 10.6374C7.39836 10.6374 5.28377 8.52285 5.28377 5.92678ZM18.1649 22.7789H1.824V20.019C1.824 15.5169 5.48729 11.8486 9.99443 11.8486C14.5016 11.8486 18.1649 15.5119 18.1649 20.019V22.7789Z" fill="black"/>
</svg>
