<svg width="40" height="40" viewBox="0 0 40 40" fill="none" xmlns="http://www.w3.org/2000/svg">
<g clip-path="url(#clip0)">
<path d="M14.667 25.746L16.6987 14.3175H19.8733L17.9051 25.746H14.667Z" fill="#3C58BF"/>
<path d="M14.667 25.746L17.2702 14.3175H19.8733L17.9051 25.746H14.667Z" fill="#293688"/>
<path d="M29.3969 14.4444C28.762 14.1905 27.7461 13.9365 26.4763 13.9365C23.3017 13.9365 21.0159 15.5238 21.0159 17.8095C21.0159 19.5238 22.6033 20.4127 23.8731 20.9841C25.1429 21.5556 25.5239 21.9365 25.5239 22.4444C25.5239 23.2063 24.508 23.5873 23.6191 23.5873C22.3493 23.5873 21.6509 23.3968 20.5715 22.9524L20.1271 22.7619L19.6826 25.3651C20.4445 25.6825 21.8413 26 23.3017 26C26.6667 26 28.889 24.4127 28.889 22C28.889 20.6667 28.0636 19.6508 26.1588 18.8254C25.016 18.254 24.3175 17.9365 24.3175 17.3651C24.3175 16.8571 24.889 16.3492 26.1588 16.3492C27.2382 16.3492 28.0001 16.5397 28.5715 16.7937L28.889 16.9206L29.3969 14.4444Z" fill="#3C58BF"/>
<path d="M29.3969 14.4444C28.762 14.1905 27.7461 13.9365 26.4763 13.9365C23.3017 13.9365 21.5874 15.5238 21.5874 17.8095C21.5874 19.5238 22.6033 20.4127 23.8731 20.9841C25.1429 21.5556 25.5239 21.9365 25.5239 22.4444C25.5239 23.2063 24.508 23.5873 23.6191 23.5873C22.3493 23.5873 21.6509 23.3968 20.5715 22.9524L20.1271 22.7619L19.6826 25.3651C20.4445 25.6825 21.8413 26 23.3017 26C26.6667 26 28.889 24.4127 28.889 22C28.889 20.6667 28.0636 19.6508 26.1588 18.8254C25.016 18.254 24.3175 17.9365 24.3175 17.3651C24.3175 16.8571 24.889 16.3492 26.1588 16.3492C27.2382 16.3492 28.0001 16.5397 28.5715 16.7937L28.889 16.9206L29.3969 14.4444Z" fill="#293688"/>
<path d="M34.857 14.3175C34.0951 14.3175 33.5237 14.381 33.2062 15.1429L28.4443 25.746H31.8729L32.5078 23.8413H36.5713L36.9523 25.746H39.9999L37.3332 14.3175H34.857ZM33.3967 21.9365C33.5872 21.3651 34.6666 18.5714 34.6666 18.5714C34.6666 18.5714 34.9205 17.873 35.111 17.4286L35.3015 18.5079C35.3015 18.5079 35.9364 21.3651 36.0634 22H33.3967V21.9365Z" fill="#3C58BF"/>
<path d="M35.6189 14.3175C34.857 14.3175 34.2856 14.381 33.9681 15.1429L28.4443 25.746H31.8729L32.5078 23.8413H36.5713L36.9523 25.746H39.9999L37.3332 14.3175H35.6189ZM33.3967 21.9365C33.6507 21.3016 34.6666 18.5714 34.6666 18.5714C34.6666 18.5714 34.9205 17.873 35.111 17.4286L35.3015 18.5079C35.3015 18.5079 35.9364 21.3651 36.0634 22H33.3967V21.9365Z" fill="#293688"/>
<path d="M8.82538 22.3175L8.50792 20.6667C7.93649 18.7619 6.09522 16.6667 4.06348 15.6508L6.92062 25.8095H10.3492L15.492 14.381H12.0635L8.82538 22.3175Z" fill="#3C58BF"/>
<path d="M8.82538 22.3175L8.50792 20.6667C7.93649 18.7619 6.09522 16.6667 4.06348 15.6508L6.92062 25.8095H10.3492L15.492 14.381H12.6984L8.82538 22.3175Z" fill="#293688"/>
<path d="M0 14.3175L0.571429 14.4444C4.63492 15.3968 7.42857 17.8095 8.50794 20.6667L7.36508 15.2698C7.1746 14.5079 6.60317 14.3175 5.90476 14.3175H0Z" fill="#FFBC00"/>
<path d="M0 14.3175C4.06349 15.2698 7.42857 17.746 8.50794 20.6032L7.42857 16.0952C7.23809 15.3333 6.60317 14.8889 5.90476 14.8889L0 14.3175Z" fill="#F7981D"/>
<path d="M0 14.3175C4.06349 15.2698 7.42857 17.746 8.50794 20.6032L7.74603 18.127C7.55555 17.3651 7.30159 16.6032 6.4127 16.2857L0 14.3175Z" fill="#ED7C00"/>
<path d="M12 21.9365L9.84124 19.7778L8.82537 22.1905L8.5714 20.6032C7.99997 18.6984 6.1587 16.6032 4.12695 15.5873L6.9841 25.746H10.4127L12 21.9365Z" fill="#051244"/>
<path d="M17.9051 25.746L15.1749 22.9523L14.667 25.746H17.9051Z" fill="#051244"/>
<path d="M25.2064 21.8095C25.4604 22.0635 25.5874 22.254 25.5239 22.5079C25.5239 23.2698 24.508 23.6508 23.6191 23.6508C22.3493 23.6508 21.6509 23.4603 20.5715 23.0159L20.1271 22.8254L19.6826 25.4286C20.4445 25.746 21.8413 26.0635 23.3017 26.0635C25.3334 26.0635 26.9842 25.4921 27.9366 24.4762L25.2064 21.8095Z" fill="#051244"/>
<path d="M28.8887 25.746H31.8728L32.5077 23.8413H36.5712L36.9522 25.746H39.9998L38.9204 21.1111L35.1109 17.4286L35.3014 18.4444C35.3014 18.4444 35.9363 21.3016 36.0633 21.9365H33.3966C33.6506 21.3016 34.6664 18.5714 34.6664 18.5714C34.6664 18.5714 34.9204 17.873 35.1109 17.4286" fill="#051244"/>
</g>
<defs>
<clipPath id="clip0">
<rect width="40" height="40" fill="white"/>
</clipPath>
</defs>
</svg>
