<svg width="48" height="48" viewBox="0 0 48 48" fill="none" xmlns="http://www.w3.org/2000/svg">
<path d="M40.0107 33.1783C39.8361 33.0037 39.5823 32.9353 39.3429 33.0001L34.6647 34.2511C34.4271 34.3159 34.2417 34.5013 34.1769 34.7389L32.9205 39.4226C32.8575 39.6602 32.9259 39.9158 33.1005 40.0904L36.5277 43.5176C36.6573 43.6472 36.8319 43.7192 37.0155 43.7192C37.0767 43.7192 37.1361 43.712 37.1955 43.6958L41.8701 42.4502C42.1077 42.3854 42.2931 42.2 42.3579 41.9624L43.6125 37.2823C43.6773 37.0447 43.6089 36.7909 43.4343 36.6163L40.0107 33.1783ZM41.1339 41.2082L37.2225 42.2558L34.3605 39.3956L35.4099 35.4841L39.3213 34.4347L42.1815 37.2967L41.1339 41.2082Z" fill="white"/>
<path d="M45.1045 31.5096C42.6745 29.0778 39.1375 28.1202 35.8147 28.9932L22.725 15.9071C24.9894 9.83748 21.9042 3.08024 15.8328 0.815827C13.3884 -0.0949778 10.71 -0.166978 8.22054 0.616026C7.85694 0.729427 7.65534 1.11823 7.76874 1.48183C7.80294 1.58623 7.86054 1.68163 7.93974 1.76083L12.7278 6.56326C13.7808 7.62166 13.7808 9.33347 12.7278 10.3919L10.3032 12.8165C9.24475 13.8695 7.53474 13.8695 6.47633 12.8165L1.6865 8.01767C1.4165 7.74767 0.979101 7.74946 0.7109 8.01947C0.631699 8.09687 0.574099 8.19227 0.541699 8.29847C-1.39871 14.4797 2.04111 21.0641 8.22414 23.0045C10.71 23.784 13.3866 23.7138 15.8292 22.8047L28.9135 35.8926C27.5652 41.0568 30.6577 46.3345 35.8201 47.6827C40.9843 49.0309 46.262 45.9385 47.6102 40.776C48.476 37.4604 47.5202 33.9342 45.0991 31.5078H45.1045V31.5096ZM44.1289 44.2033C40.9051 47.4469 35.6617 47.4649 32.4163 44.2429C30.2239 42.0631 29.4265 38.8446 30.3499 35.8926C30.4237 35.6496 30.3589 35.385 30.1789 35.2032L16.488 21.5069C16.2882 21.3089 15.9912 21.2513 15.732 21.3593C10.458 23.5662 4.39372 21.0803 2.18871 15.8045C1.4021 13.9271 1.1879 11.8571 1.5713 9.85728L5.50073 13.7867C7.09913 15.3779 9.68215 15.3779 11.2788 13.7867L13.7034 11.3621C15.2946 9.76548 15.2946 7.18246 13.7034 5.58405L9.77395 1.65463C15.3882 0.576426 20.8152 4.25385 21.8934 9.86808C22.2768 11.8679 22.0626 13.9379 21.276 15.8153C21.168 16.0745 21.2256 16.3715 21.4236 16.5713L35.1253 30.2568C35.3053 30.4368 35.5717 30.5034 35.8147 30.4278C40.1797 29.0616 44.8255 31.4934 46.1918 35.8584C47.1152 38.8086 46.3178 42.0289 44.1235 44.2069L44.1289 44.2033Z" fill="white"/>
</svg>
