<svg width="32" height="32" viewBox="0 0 32 32" fill="none" xmlns="http://www.w3.org/2000/svg">
<path d="M22.2745 12.1943C21.9025 11.5326 21.4988 11.4108 20.6768 11.3646C19.8556 11.3088 17.7908 11.2857 16.0019 11.2857C14.2096 11.2857 12.1439 11.3088 11.3236 11.3637C10.5034 11.4108 10.0988 11.5317 9.72335 12.1943C9.34021 12.8551 9.14307 13.9934 9.14307 15.9974C9.14307 15.9991 9.14307 16 9.14307 16C9.14307 16.0017 9.14307 16.0026 9.14307 16.0026V16.0043C9.14307 17.9997 9.34021 19.1466 9.72335 19.8006C10.0988 20.4623 10.5025 20.5823 11.3228 20.638C12.1439 20.686 14.2096 20.7143 16.0019 20.7143C17.7908 20.7143 19.8556 20.686 20.6776 20.6388C21.4996 20.5831 21.9034 20.4631 22.2754 19.8014C22.6619 19.1474 22.8574 18.0006 22.8574 16.0051C22.8574 16.0051 22.8574 16.0026 22.8574 16.0008C22.8574 16.0008 22.8574 15.9991 22.8574 15.9983C22.8574 13.9934 22.6619 12.8551 22.2745 12.1943ZM14.2859 18.5714V13.4286L18.5716 16L14.2859 18.5714Z" fill="white"/>
<mask id="path-2-inside-1" fill="white">
<path fill-rule="evenodd" clip-rule="evenodd" d="M16 30.4762C23.995 30.4762 30.4762 23.995 30.4762 16C30.4762 8.00502 23.995 1.52381 16 1.52381C8.00502 1.52381 1.52381 8.00502 1.52381 16C1.52381 23.995 8.00502 30.4762 16 30.4762ZM16 32C24.8366 32 32 24.8366 32 16C32 7.16344 24.8366 0 16 0C7.16344 0 0 7.16344 0 16C0 24.8366 7.16344 32 16 32Z"/>
</mask>
<path fill-rule="evenodd" clip-rule="evenodd" d="M16 30.4762C23.995 30.4762 30.4762 23.995 30.4762 16C30.4762 8.00502 23.995 1.52381 16 1.52381C8.00502 1.52381 1.52381 8.00502 1.52381 16C1.52381 23.995 8.00502 30.4762 16 30.4762ZM16 32C24.8366 32 32 24.8366 32 16C32 7.16344 24.8366 0 16 0C7.16344 0 0 7.16344 0 16C0 24.8366 7.16344 32 16 32Z" fill="white"/>
<path d="M28.9524 16C28.9524 23.1534 23.1534 28.9524 16 28.9524V32C24.8366 32 32 24.8366 32 16H28.9524ZM16 3.04762C23.1534 3.04762 28.9524 8.8466 28.9524 16H32C32 7.16344 24.8366 0 16 0V3.04762ZM3.04762 16C3.04762 8.8466 8.8466 3.04762 16 3.04762V0C7.16344 0 0 7.16344 0 16H3.04762ZM16 28.9524C8.8466 28.9524 3.04762 23.1534 3.04762 16H0C0 24.8366 7.16344 32 16 32V28.9524ZM30.4762 16C30.4762 23.995 23.995 30.4762 16 30.4762V33.5238C25.6781 33.5238 33.5238 25.6781 33.5238 16H30.4762ZM16 1.52381C23.995 1.52381 30.4762 8.00502 30.4762 16H33.5238C33.5238 6.32187 25.6781 -1.52381 16 -1.52381V1.52381ZM1.52381 16C1.52381 8.00502 8.00502 1.52381 16 1.52381V-1.52381C6.32187 -1.52381 -1.52381 6.32187 -1.52381 16H1.52381ZM16 30.4762C8.00502 30.4762 1.52381 23.995 1.52381 16H-1.52381C-1.52381 25.6781 6.32187 33.5238 16 33.5238V30.4762Z" fill="white" mask="url(#path-2-inside-1)"/>
</svg>
