<svg width="20" height="14" viewBox="0 0 20 14" fill="none" xmlns="http://www.w3.org/2000/svg">
<path d="M18.9633 1.6719C18.4319 0.745502 17.8551 0.575102 16.6808 0.510302C15.5078 0.432302 12.558 0.399902 10.0025 0.399902C7.44206 0.399902 4.49104 0.432302 3.3192 0.509102C2.14737 0.575102 1.56941 0.744302 1.03308 1.6719C0.485734 2.5971 0.204102 4.1907 0.204102 6.9963C0.204102 6.9987 0.204102 6.9999 0.204102 6.9999C0.204102 7.0023 0.204102 7.0035 0.204102 7.0035V7.0059C0.204102 9.7995 0.485734 11.4051 1.03308 12.3207C1.56941 13.2471 2.14614 13.4151 3.31798 13.4931C4.49104 13.5603 7.44206 13.5999 10.0025 13.5999C12.558 13.5999 15.5078 13.5603 16.6821 13.4943C17.8563 13.4163 18.4331 13.2483 18.9645 12.3219C19.5168 11.4063 19.7959 9.8007 19.7959 7.0071C19.7959 7.0071 19.7959 7.0035 19.7959 7.0011C19.7959 7.0011 19.7959 6.9987 19.7959 6.9975C19.7959 4.1907 19.5168 2.5971 18.9633 1.6719ZM7.55104 10.5999V3.3999L13.6735 6.9999L7.55104 10.5999Z" fill="#188288"/>
</svg>
