<svg width="134" height="72" viewBox="0 0 134 72" fill="none" xmlns="http://www.w3.org/2000/svg">
<path d="M69.3239 71.9507C68.985 71.9182 67.9685 71.903 65.9477 71.9005L63.0564 71.8968L63.0757 71.6284C63.1248 70.9457 63.3102 70.1826 63.8149 68.5847C64.215 67.3181 64.3005 67.0253 65.0659 64.2994C65.7296 61.9357 65.9647 61.1183 66.4728 59.4071C66.9876 57.6733 67.4313 56.1085 68.3248 52.8755C69.5345 48.4985 69.7929 47.5994 70.8516 44.0864C71.936 40.4879 72.545 38.3199 72.9539 36.6019L73.097 36.0005H73.3345H73.572L73.7723 36.8239C74.1493 38.3737 74.3939 39.2267 76.0037 44.6045C76.2535 45.439 76.5868 46.4881 76.7443 46.9359C77.2303 48.3174 77.3862 48.9276 77.4234 49.593C77.4501 50.0715 77.4051 50.3469 77.1864 51.0436C77.0842 51.3693 76.8614 52.152 76.6913 52.783C76.5212 53.4139 76.2564 54.3465 76.1029 54.8553C75.5442 56.7071 74.9996 58.6512 74.128 61.9051C73.8254 63.0347 73.3866 64.6167 73.1529 65.4207C72.9192 66.2246 72.6219 67.2488 72.4924 67.6966C72.2498 68.535 71.9918 69.5089 71.8062 70.287C71.5999 71.1521 71.3345 71.6906 71.0347 71.8527C70.7432 72.0102 70.2427 72.0389 69.3239 71.9507V71.9507ZM103.477 71.8666C103.392 71.8277 103.281 71.7478 103.231 71.689C103.133 71.5739 102.97 71.1669 102.913 70.8976C102.894 70.8061 102.689 70.0816 102.457 69.2879C102.226 68.4941 101.884 67.3034 101.699 66.6419C100.777 63.3552 100.037 60.808 98.5454 55.7852C96.4671 48.7881 94.8903 43.4047 91.7316 32.5219C91.0316 30.11 90.1533 27.091 89.7799 25.813C88.944 22.9525 88.4807 21.2982 88.1503 19.9945C87.7413 18.3804 87.5527 17.7355 87.2276 16.8384C87.122 16.5473 87.025 16.3225 87.0119 16.339C86.9988 16.3555 86.9142 16.6853 86.8237 17.0719C86.4814 18.5352 86.1195 19.828 85.1559 23.0297C84.3803 25.6066 84.398 25.5445 84.2237 26.3152C83.9443 27.5517 83.743 28.0609 83.4374 28.3049C83.2581 28.4482 83.1435 28.4508 83.1186 28.3124C83.023 27.7812 82.9348 27.4504 82.6277 26.4713C82.5064 26.0846 82.1994 24.9938 81.9456 24.0474C81.4589 22.233 81.0456 20.8023 80.7719 19.9845C80.6814 19.7141 80.5411 19.2145 80.4601 18.8743C80.2099 17.8225 80.1289 17.6017 79.888 17.3149C79.6853 17.0734 79.5296 17.0162 79.0751 17.0162C78.6665 17.0162 78.6953 17.0756 78.7853 16.4185C78.8954 15.6153 79.0751 14.9313 79.5905 13.3525C80.1668 11.5874 81.2027 7.99705 82.1192 4.58898C82.3069 3.89063 82.5814 2.93309 82.7291 2.46111C83.0327 1.49073 83.2215 0.80726 83.2984 0.400251C83.3272 0.247599 83.3747 0.0934695 83.4039 0.0577403C83.4543 -0.00394723 83.8581 -0.00655187 91.4146 0.00607013C95.7912 0.0133808 99.4293 0.0319923 99.4992 0.0474291C99.7159 0.0952811 99.782 0.250348 100.24 1.788C100.404 2.33754 100.688 3.31174 100.871 3.95288C101.054 4.59401 101.449 5.96439 101.75 6.99816C102.427 9.32391 102.815 10.6987 103.222 12.2053C103.639 13.7536 104.473 16.5353 105.042 18.2755C105.269 18.9733 105.331 19.3005 105.318 19.7483C105.31 20.0364 105.294 20.1422 105.236 20.2907C105.113 20.6073 104.739 21.0527 104.067 21.6844C103.184 22.5158 102.517 23.3145 101.771 24.4366C99.1853 28.3277 97.7267 33.3223 97.6326 38.6095C97.5518 43.1515 98.5109 47.5845 100.307 50.9692C102.005 54.1698 104.636 56.8882 107.718 58.6279C108.982 59.3414 110.565 60.0124 111.731 60.3294C112.8 60.6198 114.446 60.7482 115.83 60.649C116.762 60.5823 117.076 60.6469 117.321 60.9559C117.539 61.2304 117.686 61.6445 117.902 62.6001C117.982 62.9518 118.165 63.6345 118.309 64.1173C118.453 64.6001 118.739 65.5696 118.944 66.2718C119.15 66.974 119.463 68.0148 119.641 68.5847C120.153 70.2267 120.291 70.8193 120.329 71.536L120.349 71.8968H112.755C108.579 71.8968 104.818 71.906 104.397 71.9171C103.695 71.9357 103.621 71.9317 103.477 71.8665V71.8666ZM42.0466 59.4627C37.735 59.2228 34.1348 57.544 31.0898 54.3537C30.6019 53.8425 29.566 52.5319 29.1658 51.9195C27.2431 48.9773 26.179 45.6117 25.8411 41.4035C25.7755 40.587 25.7662 38.1234 25.8256 37.2957C25.9687 35.3004 26.264 33.5053 26.7405 31.7351C27.4057 29.2635 28.3517 27.1354 29.6819 25.1185C30.0608 24.5441 31.1409 23.1817 31.5921 22.7092C34.365 19.8048 37.8141 18.0369 41.7736 17.4904C42.3424 17.4119 44.4389 17.4241 45.0503 17.5094C47.2079 17.8106 49.1637 18.5426 51.104 19.7752C53.7671 21.4669 55.9725 23.8918 57.5307 26.8414C58.9148 29.4616 59.8495 32.7309 60.1812 36.1115C60.2977 37.2988 60.3165 37.7312 60.3156 39.2016C60.3146 40.705 60.2855 41.2881 60.1531 42.4581C59.6736 46.6951 58.2475 50.2954 55.8656 53.2825C54.6233 54.8405 53.3371 55.9838 51.6036 57.0711C49.3152 58.5064 47.2457 59.198 44.5654 59.4234C43.913 59.4782 42.6727 59.4976 42.0466 59.4627ZM43.516 54.5017C44.5354 54.3623 45.6275 53.8777 46.4117 53.2167C48.0847 51.8065 49.2557 49.3477 50.002 45.6777C50.7367 42.0654 50.8476 38.0052 50.322 33.9652C50.0317 31.7342 49.5124 29.3766 49.001 27.9681C48.3162 26.082 47.2245 24.4529 46.0098 23.5043C44.6792 22.4652 43.1612 22.1207 41.6359 22.5115C39.8053 22.9806 38.3074 24.5846 37.2468 27.2115C36.2038 29.7949 35.6735 33.2384 35.5271 38.3788C35.4266 41.9069 35.7841 44.9584 36.6075 47.602C37.4771 50.3938 38.9964 52.7055 40.6645 53.775C41.3148 54.1919 41.8646 54.3937 42.6846 54.5165C42.8772 54.5453 43.2451 54.5388 43.516 54.5017ZM114.742 59.4752C113.052 59.3477 111.851 59.1167 110.538 58.6667C108.826 58.0802 107.023 57.0552 105.529 55.8194C103.455 54.1037 101.797 51.9288 100.649 49.4154C100.218 48.4706 99.7368 47.1097 99.459 46.0478C98.1411 41.0095 98.406 34.9805 100.165 29.991C101.02 27.5649 102.074 25.6184 103.514 23.8046C104.812 22.1701 106.064 21.0453 107.792 19.9625C109.572 18.8468 111.611 18.055 113.801 17.6295C114.501 17.4936 114.869 17.4605 115.687 17.4604C116.765 17.4601 117.998 17.6018 119.238 17.8681C122.256 18.5165 125.02 20.1083 127.336 22.5318C127.806 23.0243 128.852 24.3411 129.243 24.9339C131.006 27.6048 132.249 30.9054 132.826 34.4462C133.484 38.4854 133.268 42.7797 132.226 46.3993C131.209 49.9313 129.518 52.7727 127.057 55.0877C123.879 58.0766 120.141 59.5287 115.715 59.493C115.261 59.4893 114.822 59.4813 114.742 59.4752ZM116.954 54.3536C117.648 54.2584 118.161 54.0707 118.768 53.6897C120.139 52.8289 121.278 51.1283 122.104 48.7118C122.637 47.152 123.088 44.865 123.321 42.544C123.461 41.1514 123.496 40.4164 123.497 38.7945C123.499 36.9629 123.434 35.8207 123.236 34.1762C122.912 31.4911 122.244 28.7313 121.525 27.1044C121.012 25.9464 120.277 24.8218 119.561 24.101C118.714 23.2483 117.744 22.7043 116.652 22.4692C116.233 22.3791 115.296 22.379 114.859 22.4689C113.519 22.7451 112.556 23.3688 111.596 24.5811C110.988 25.3493 110.549 26.1304 110.098 27.2484C109.254 29.3384 108.774 31.8345 108.543 35.3344C108.347 38.2934 108.33 40.3486 108.485 42.2546C108.862 46.9038 110.259 50.6917 112.345 52.7221C113.254 53.6062 114.383 54.1878 115.516 54.3542C115.813 54.3979 116.633 54.3976 116.954 54.3535V54.3536ZM114.506 52.8595C113.696 52.5948 113.063 52.1141 112.359 51.23C111.751 50.4651 111.364 49.7802 110.932 48.7037C110.101 46.6314 109.658 44.2913 109.391 40.5523C109.328 39.6669 109.303 37.5809 109.346 36.8517C109.382 36.2604 109.472 35.3963 109.535 35.0383C109.569 34.8474 109.576 34.8348 109.658 34.8348C109.74 34.8348 109.756 34.8607 109.908 35.2419C109.997 35.4658 110.122 35.8405 110.184 36.0745C110.247 36.3086 110.454 37.0263 110.645 37.6693C110.836 38.3124 111.198 39.5781 111.451 40.4818C112.24 43.3061 112.417 43.9328 112.855 45.4557C113.56 47.907 113.953 49.215 114.301 50.2665C114.656 51.3394 114.816 51.9188 114.905 52.449C114.985 52.9239 114.983 52.9499 114.866 52.9477C114.814 52.9466 114.652 52.907 114.506 52.8595ZM81.8281 58.7364C81.7958 58.7283 81.6966 58.7036 81.6077 58.6813C81.1035 58.555 80.9005 58.1886 80.592 56.8476C80.521 56.539 80.1402 55.1818 79.7457 53.8316C79.3513 52.4814 78.8669 50.8105 78.6693 50.1185C78.1216 48.1997 77.7525 46.9362 76.6858 43.3278C75.2057 38.3205 74.8616 37.1214 74.0264 34.0577C73.4721 32.0245 73.2779 31.337 72.9392 30.209C72.6393 29.2098 72.1973 27.8591 72.1703 27.8591C72.1454 27.8591 71.6062 29.5705 71.395 30.32C71.3033 30.6457 70.9931 31.7864 70.7058 32.855C70.4185 33.9235 69.2087 38.2366 68.0173 42.4396C66.8258 46.6427 65.5689 51.089 65.224 52.3204C64.8792 53.5518 64.4701 54.998 64.315 55.5342C64.1598 56.0703 63.9734 56.7751 63.9007 57.1003C63.6873 58.0548 63.5422 58.3807 63.2503 58.5612L63.0792 58.667L60.9339 58.6541C59.7541 58.647 58.783 58.6343 58.7761 58.6259C58.7469 58.5904 58.8399 57.9253 58.9355 57.4859C58.9923 57.2249 59.1521 56.6429 59.2906 56.1924C59.8701 54.308 60.6526 51.619 61.252 49.4524C61.9883 46.7908 62.3463 45.5354 64.122 39.3866C65.6284 34.1706 66.1107 32.4783 66.8799 29.7094C67.5583 27.2673 67.8537 26.2235 68.617 23.5725C68.9589 22.3853 69.2849 21.2029 69.3416 20.9451C69.761 19.0377 70.0044 18.4677 70.4757 18.2891C70.6408 18.2266 70.7348 18.2206 71.3369 18.2348C72.5841 18.2643 77.2965 18.2562 77.8609 18.2237C79.2041 18.1464 79.4145 18.3554 79.8422 20.1931C79.9102 20.4851 80.1116 21.2178 80.2898 21.8214C80.7836 23.4934 81.3608 25.5 82.1848 28.4091C84.3175 35.9386 85.7746 40.9692 87.594 47.084C88.0542 48.6308 88.7415 50.9622 89.1212 52.2649C89.5009 53.5675 89.9609 55.1162 90.1434 55.7065C90.5951 57.1681 90.7721 57.8779 90.8236 58.4357L90.8433 58.6485L87.3349 58.6495C84.5384 58.6503 83.7191 58.6615 83.2975 58.7043C82.8139 58.7533 81.9708 58.7717 81.8281 58.7363V58.7364ZM0 38.4614V18.2744L6.45779 18.2747C13.6457 18.2751 14.4794 18.2932 15.9865 18.4805C18.5673 18.8014 20.5608 19.6153 22.3194 21.0659C24.3219 22.7177 25.7261 25.6185 26.125 28.9275C26.3022 30.3977 26.275 32.0304 26.0494 33.4553C25.7242 35.5097 24.9534 37.3662 23.8535 38.7445C22.4741 40.4731 20.4144 41.5886 17.7868 42.0301C16.2442 42.2892 14.5529 42.3393 11.4168 42.2187C10.932 42.2001 10.2013 42.1739 9.79322 42.1607L9.0512 42.1365V50.3925V58.6485H4.5256H0V38.4614V38.4614ZM12.4001 36.7234C13.9538 36.5045 15.0457 35.9484 15.8495 34.9669C16.7242 33.8987 17.1891 32.4073 17.1909 30.6636C17.1928 28.7041 16.5593 26.7236 15.5421 25.5092C14.7194 24.527 13.743 24.0289 12.225 23.817C11.8809 23.769 9.11022 23.7609 9.05002 23.8078C9.03217 23.8217 9.02181 26.2064 9.02181 30.3025V36.7752L9.35241 36.7895C10.1302 36.823 11.9778 36.7829 12.4001 36.7234V36.7234Z" fill="#182328"/>
</svg>
