<svg width="113" height="48" viewBox="0 0 113 48" fill="none" xmlns="http://www.w3.org/2000/svg">
<path d="M58.4976 46.2283C58.2363 46.2071 57.4524 46.2 55.8987 46.2H53.674L53.6881 46.0377C53.7234 45.6212 53.8718 45.1553 54.2531 44.1812C54.5639 43.4047 54.6274 43.2283 55.2136 41.5624C55.7221 40.1224 55.9057 39.6212 56.2941 38.5765C56.6896 37.5177 57.0286 36.5647 57.7207 34.5883C58.653 31.92 58.8507 31.3694 59.6629 29.2236C60.4963 27.0283 60.9624 25.7012 61.2802 24.6565L61.3932 24.2894H61.5768H61.7604L61.9158 24.7906C62.2053 25.7365 62.396 26.2589 63.6319 29.5412C63.8226 30.0494 64.0769 30.6918 64.204 30.9671C64.5783 31.8071 64.6984 32.1812 64.7266 32.5906C64.7478 32.88 64.7125 33.0494 64.543 33.473C64.4653 33.6706 64.2958 34.1506 64.1616 34.5318C64.0274 34.913 63.8297 35.4847 63.7096 35.7953C63.2788 36.9247 62.8621 38.1106 62.1912 40.1012C61.9582 40.793 61.6192 41.753 61.4426 42.2471C61.266 42.7412 61.033 43.3624 60.9341 43.6377C60.7505 44.153 60.5457 44.7459 60.4044 45.2189C60.2491 45.7483 60.0443 46.073 59.8112 46.1718C59.5923 46.2636 59.2038 46.2777 58.4976 46.2283ZM84.7625 46.1718C84.699 46.1506 84.6142 46.1012 84.5718 46.0659C84.4942 45.9953 84.3741 45.7483 84.3247 45.5859C84.3105 45.5294 84.1552 45.0847 83.9715 44.6047C83.795 44.1177 83.5337 43.3906 83.3854 42.9883C82.6791 40.9836 82.1071 39.4306 80.963 36.36C79.3669 32.0894 78.1522 28.8 75.7227 22.1577C75.186 20.6824 74.508 18.84 74.2184 18.0636C73.5757 16.32 73.2226 15.3106 72.9684 14.513C72.6506 13.5247 72.5093 13.1365 72.2621 12.5859C72.1845 12.4094 72.1068 12.2683 72.0997 12.2824C72.0927 12.2894 72.022 12.4942 71.9585 12.7271C71.6972 13.6236 71.4147 14.4071 70.6731 16.3624C70.0799 17.9365 70.0869 17.8942 69.9528 18.3671C69.7409 19.1224 69.5855 19.433 69.3454 19.5812C69.2041 19.6659 69.1194 19.673 69.0982 19.5883C69.0276 19.2636 68.957 19.0589 68.7239 18.4659C68.6321 18.233 68.392 17.5624 68.2013 16.9836C67.827 15.8753 67.5092 15 67.2973 14.5059C67.2267 14.3436 67.1207 14.033 67.0572 13.8283C66.8665 13.1859 66.8029 13.0518 66.6193 12.8753C66.4639 12.7271 66.3439 12.6918 65.9908 12.6918C65.68 12.6918 65.7012 12.7271 65.7648 12.3247C65.8495 11.8377 65.9908 11.4142 66.3863 10.4542C66.8312 9.37415 67.6292 7.18592 68.3284 5.10356C68.4697 4.68003 68.6815 4.09415 68.7945 3.80474C69.0276 3.2118 69.1759 2.79533 69.2324 2.54827C69.2536 2.4565 69.2889 2.35768 69.3101 2.3365C69.3454 2.30121 69.6561 2.29415 75.4685 2.30827C78.8372 2.31533 81.6339 2.32239 81.6833 2.3365C81.8528 2.36474 81.9023 2.46356 82.2554 3.40239C82.3825 3.74121 82.6014 4.33415 82.7427 4.72239C82.8839 5.11062 83.1876 5.95062 83.4207 6.57886C83.9433 7.99768 84.2399 8.83768 84.5507 9.75533C84.8685 10.7012 85.5111 12.3953 85.949 13.4612C86.1256 13.8847 86.175 14.0894 86.1609 14.3577C86.1538 14.5342 86.1397 14.5977 86.0973 14.6894C86.0055 14.88 85.7159 15.1553 85.2004 15.5436C84.5224 16.0518 84.0069 16.5389 83.4348 17.2236C81.4432 19.5953 80.3274 22.6447 80.2497 25.8777C80.1861 28.6518 80.9277 31.3553 82.3048 33.4236C83.6114 35.3789 85.6312 37.0377 88.0041 38.0965C88.9788 38.5342 90.1935 38.9436 91.0904 39.1342C91.9096 39.3106 93.1809 39.3883 94.2402 39.3318C94.9606 39.2894 95.2007 39.3318 95.3843 39.5224C95.5538 39.6918 95.6668 39.9459 95.8292 40.5247C95.8928 40.7365 96.0341 41.153 96.14 41.4494C96.253 41.7459 96.4719 42.3389 96.6273 42.7624C96.7827 43.193 97.0298 43.8283 97.164 44.1742C97.5595 45.1765 97.6655 45.5365 97.6937 45.9742L97.7078 46.193H91.8673C88.6539 46.193 85.7654 46.2 85.4405 46.2071C84.932 46.2141 84.8755 46.2141 84.7625 46.1718ZM37.5224 38.6047C34.2101 38.4565 31.4346 37.433 29.097 35.4847C28.7227 35.1742 27.9246 34.3694 27.6139 34.0024C26.1379 32.2094 25.3186 30.1553 25.0573 27.5859C25.0079 27.0847 25.0008 25.5812 25.0432 25.08C25.1562 23.8589 25.3822 22.7647 25.7494 21.6847C26.2579 20.1742 26.9853 18.8753 28.0094 17.6471C28.2989 17.2942 29.1323 16.4683 29.4784 16.1789C31.6112 14.4071 34.2666 13.3271 37.3105 12.9953C37.7484 12.9459 39.3586 12.953 39.8318 13.0094C41.4914 13.193 42.9957 13.6377 44.4859 14.393C46.534 15.4236 48.2289 16.9059 49.4295 18.7059C50.4959 20.3083 51.2163 22.2989 51.4706 24.3671C51.5624 25.0942 51.5765 25.3553 51.5765 26.2518C51.5765 27.1694 51.5553 27.5224 51.4494 28.2424C51.0821 30.8259 49.9804 33.0283 48.1512 34.8494C47.1978 35.8024 46.2091 36.5012 44.8743 37.1647C43.1158 38.04 41.5197 38.4636 39.4645 38.5977C38.9561 38.6118 38.0026 38.6259 37.5224 38.6047ZM38.6524 35.5765C39.4363 35.4918 40.2767 35.1953 40.877 34.793C42.1624 33.9318 43.0663 32.4283 43.6384 30.1906C44.2034 27.9883 44.2881 25.5106 43.8856 23.04C43.6596 21.6777 43.2641 20.2377 42.8686 19.3765C42.3389 18.2259 41.5056 17.2306 40.5663 16.6518C39.5422 16.0165 38.3769 15.8047 37.2046 16.0447C35.7992 16.3342 34.648 17.3083 33.8288 18.9106C33.0237 20.4847 32.6211 22.5883 32.5081 25.7294C32.4304 27.8824 32.7059 29.7459 33.3415 31.3624C34.0124 33.0636 35.1777 34.4753 36.463 35.1318C36.9645 35.3859 37.3882 35.513 38.0168 35.5836C38.158 35.6047 38.4405 35.5977 38.6524 35.5765ZM93.428 38.6118C92.1286 38.5342 91.2034 38.393 90.1935 38.1177C88.8799 37.7577 87.4886 37.1365 86.3445 36.3812C84.7484 35.3365 83.4772 34.0094 82.5944 32.4706C82.2625 31.8918 81.8952 31.0659 81.6763 30.4165C80.6593 27.3389 80.8641 23.6612 82.2201 20.6189C82.8769 19.1365 83.689 17.9506 84.7978 16.8424C85.7936 15.8471 86.7612 15.1553 88.0889 14.4989C89.459 13.8212 91.0268 13.3342 92.7077 13.073C93.2444 12.9883 93.5269 12.9671 94.1555 12.9671C94.9818 12.9671 95.9352 13.0518 96.8886 13.2142C99.2121 13.6094 101.338 14.5836 103.118 16.0589C103.478 16.3624 104.283 17.16 104.587 17.5271C105.943 19.1577 106.896 21.1694 107.341 23.3365C107.849 25.8 107.68 28.4259 106.882 30.6353C106.098 32.7883 104.798 34.5247 102.906 35.9365C100.462 37.7577 97.5878 38.6471 94.1837 38.6259C93.8235 38.6189 93.4845 38.6118 93.428 38.6118ZM95.1301 35.4847C95.6668 35.4283 96.0552 35.3153 96.5214 35.0824C97.5736 34.56 98.4494 33.5224 99.085 32.0471C99.4946 31.0942 99.8407 29.6965 100.024 28.2847C100.13 27.4377 100.158 26.9859 100.158 25.9977C100.158 24.8824 100.109 24.1836 99.9607 23.1812C99.7135 21.5436 99.198 19.8565 98.6471 18.8612C98.2516 18.1553 97.6866 17.4706 97.1358 17.0259C96.486 16.5036 95.7374 16.1718 94.897 16.0306C94.5721 15.9742 93.8518 15.9742 93.5199 16.0306C92.4887 16.2 91.7472 16.5812 91.0127 17.3224C90.5466 17.7883 90.2076 18.2683 89.8615 18.953C89.2118 20.2306 88.8446 21.7553 88.668 23.8871C88.5197 25.6942 88.5056 26.9506 88.6256 28.1083C88.9152 30.9459 89.9887 33.2612 91.5918 34.4965C92.291 35.033 93.1597 35.393 94.0283 35.4918C94.2473 35.513 94.8829 35.513 95.1301 35.4847ZM93.2444 34.5742C92.6229 34.4118 92.1356 34.1224 91.5918 33.5789C91.1257 33.113 90.8291 32.6965 90.4972 32.04C89.8545 30.7765 89.5155 29.3436 89.3107 27.0636C89.2612 26.52 89.2401 25.2494 89.2754 24.8047C89.3036 24.4447 89.3742 23.9153 89.4237 23.6965C89.4519 23.5765 89.459 23.5694 89.5155 23.5694C89.5791 23.5694 89.5932 23.5836 89.7062 23.8165C89.7768 23.9506 89.8686 24.1836 89.918 24.3247C89.9675 24.4659 90.1229 24.9036 90.2712 25.2989C90.4195 25.6942 90.6949 26.4636 90.8927 27.0142C91.5 28.7365 91.6342 29.1177 91.9732 30.0494C92.517 31.5459 92.8207 32.3436 93.082 32.9859C93.3574 33.6424 93.4775 33.9953 93.5481 34.32C93.6117 34.6094 93.6046 34.6236 93.5199 34.6236C93.4775 34.6236 93.3574 34.6024 93.2444 34.5742ZM68.1165 38.16C68.0883 38.153 68.0177 38.1389 67.947 38.1247C67.5586 38.0471 67.4032 37.8212 67.1631 37.0024C67.1066 36.8118 66.8171 35.9859 66.5134 35.16C66.2097 34.3342 65.8354 33.3177 65.6871 32.8942C65.2633 31.7224 64.9809 30.953 64.1616 28.7506C63.0246 25.6942 62.7562 24.96 62.1135 23.0894C61.6898 21.8471 61.5344 21.4306 61.2802 20.7389C61.0471 20.1318 60.7081 19.3059 60.6869 19.3059C60.6657 19.3059 60.2561 20.3506 60.0937 20.8094C60.0231 21.0071 59.783 21.7059 59.564 22.3553C59.3451 23.0047 58.4129 25.6377 57.4947 28.2071C56.5766 30.7694 55.6091 33.4871 55.3478 34.2353C55.0794 34.9836 54.7687 35.873 54.6486 36.1977C54.5286 36.5224 54.3873 36.953 54.3308 37.1506C54.1684 37.7365 54.0554 37.9342 53.8294 38.04L53.6952 38.1036L52.0426 38.0965C51.1386 38.0894 50.39 38.0824 50.3829 38.0824C50.3618 38.0612 50.4324 37.6518 50.503 37.3836C50.5454 37.2212 50.6725 36.8683 50.7784 36.593C51.2234 35.4424 51.8237 33.8047 52.2898 32.4777C52.8548 30.8542 53.1302 30.0847 54.5003 26.3365C55.6585 23.153 56.0328 22.1224 56.619 20.4283C57.1416 18.9389 57.3676 18.3036 57.9538 16.68C58.2151 15.953 58.4694 15.233 58.5117 15.0777C58.8366 13.913 59.0202 13.5671 59.3804 13.4542C59.5075 13.4189 59.5781 13.4118 60.0443 13.4189C61.0047 13.44 64.6277 13.433 65.0585 13.4118C66.0896 13.3624 66.2521 13.4894 66.584 14.6118C66.6334 14.7883 66.7888 15.24 66.9301 15.6071C67.3114 16.6306 67.7564 17.8518 68.3849 19.6306C70.0234 24.2259 71.1463 27.2965 72.5446 31.0306C72.8978 31.9765 73.4274 33.3953 73.717 34.193C74.0066 34.9906 74.3597 35.9365 74.5009 36.2965C74.847 37.1859 74.9812 37.6236 75.0235 37.9624L75.0377 38.0894H72.3398C70.1858 38.0894 69.5573 38.0965 69.2324 38.1247C68.8722 38.1742 68.2225 38.1812 68.1165 38.16ZM5.18384 25.7859V13.4612H10.1487C15.6785 13.4612 16.3141 13.4753 17.4794 13.5883C19.4639 13.7859 20.9965 14.28 22.3524 15.1694C23.892 16.1789 24.9726 17.9506 25.2763 19.9694C25.4104 20.8659 25.3893 21.8612 25.2198 22.7365C24.9726 23.993 24.3793 25.1224 23.5319 25.9624C22.4725 27.0142 20.8905 27.6989 18.8636 27.9671C17.6772 28.1224 16.3777 28.1577 13.9624 28.08C13.588 28.0659 13.0301 28.0518 12.7123 28.0447L12.1403 28.0306V33.0706V38.1106H8.65852H5.18384V25.7859ZM14.718 24.7271C15.9116 24.593 16.752 24.2542 17.3735 23.6542C18.0444 23.0047 18.4046 22.0942 18.4046 21.0283C18.4046 19.8353 17.9173 18.6212 17.1334 17.88C16.4977 17.28 15.7491 16.9765 14.5838 16.8494C14.3225 16.8212 12.1897 16.8142 12.1403 16.8424C12.1261 16.8494 12.1191 18.3036 12.1191 20.8094V24.7624L12.3733 24.7694C12.9736 24.7836 14.3932 24.7624 14.718 24.7271Z" fill="url(#paint0_linear)"/>
<defs>
<linearGradient id="paint0_linear" x1="5.18535" y1="24.2824" x2="107.62" y2="24.2824" gradientUnits="userSpaceOnUse">
<stop stop-color="#519FAF"/>
<stop offset="1" stop-color="#243672"/>
</linearGradient>
</defs>
</svg>
